<?xml version="1.0" encoding="utf-8"?>
<!-- Generator: Adobe Illustrator 20.1.0, SVG Export Plug-In . SVG Version: 6.00 Build 0)  -->
<svg version="1.1" xmlns="http://www.w3.org/2000/svg" xmlns:xlink="http://www.w3.org/1999/xlink" x="0px" y="0px"
	 viewBox="0 0 1440 150" style="enable-background:new 0 0 1440 150;" xml:space="preserve">
<style type="text/css">
	.st0{display:none;}
	.st1{display:inline;fill:#5596E6;}
	.st2{fill:none;stroke:#C0E6FF;stroke-miterlimit:10;}
	.st3{fill:none;stroke:#325C80;stroke-width:3;stroke-linecap:round;stroke-linejoin:round;stroke-miterlimit:10;}
	.st4{fill:none;stroke:#325C80;stroke-width:1.9998;stroke-linecap:round;stroke-linejoin:round;stroke-miterlimit:10;}
	.st5{fill:#7CC7FF;}
	.st6{fill:#5AAAFA;}
	.st7{fill:#5AAAFA;stroke:#5AAAFA;stroke-miterlimit:10;}
	.st8{fill:#325C80;}
	.st9{fill:none;stroke:#211F1F;stroke-width:1.9998;stroke-linecap:round;stroke-miterlimit:10;}
	.st10{fill:#C0E6FF;}
	.st11{fill:none;stroke:#C0E6FF;stroke-width:1.9998;stroke-linecap:round;stroke-linejoin:round;stroke-miterlimit:10;}
	.st12{fill:#5596E6;stroke:#325C80;stroke-width:1.9998;stroke-linecap:round;stroke-linejoin:round;stroke-miterlimit:10;}
	.st13{fill:none;stroke:#325C80;stroke-width:1.9998;stroke-linecap:round;stroke-miterlimit:10;}
	.st14{fill:#5AAAFA;stroke:#5AAAFA;stroke-width:1.9998;stroke-linecap:round;stroke-linejoin:round;stroke-miterlimit:10;}
	.st15{fill:#5596E6;stroke:#325C80;stroke-width:1.9998;stroke-miterlimit:10;}
	.st16{fill:#5596E6;stroke:#325C80;stroke-width:3;stroke-linejoin:round;stroke-miterlimit:10;}
	.st17{fill:#325C80;stroke:#325C80;stroke-width:1.9998;stroke-linejoin:round;stroke-miterlimit:10;}
	.st18{fill:none;stroke:#325C80;stroke-width:1.9998;stroke-miterlimit:10;}
	.st19{fill:#5596E6;}
	.st20{fill:none;stroke:#5596E6;stroke-width:1.9998;stroke-linecap:round;stroke-linejoin:round;stroke-miterlimit:10;}
	.st21{fill:#264A60;}
	.st22{fill:#211F1F;}
	.st23{fill:#FFFFFF;}
	.st24{fill:none;stroke:#C0E6FF;stroke-linecap:round;stroke-miterlimit:10;}
	.st25{fill:none;stroke:#C0E6FF;stroke-linecap:round;stroke-linejoin:round;stroke-miterlimit:10;}
</style>
<g id="Layer_2" class="st0">
	<rect x="0.2" y="-1.5" class="st1" width="1439.8" height="151.7"/>
</g>
<g id="Layer_1">
</g>
<g id="Layer_1_copy">
	<g>
		<path class="st8" d="M893.7,138.5h-11.5c-0.3,0-0.5-0.2-0.5-0.5s0.2-0.5,0.5-0.5h11v-13.2c0-0.3,0.2-0.5,0.5-0.5h10.7v-13.8
			c0-0.3,0.2-0.5,0.5-0.5s0.5,0.2,0.5,0.5v14.3c0,0.3-0.2,0.5-0.5,0.5h-10.7V138C894.2,138.3,894,138.5,893.7,138.5z"/>
	</g>
	<g>
		<path class="st10" d="M813.1,82.5l-2-2c-4.1-4.1-10.8-4.1-14.9,0s-4.1,10.8,0,14.9c0.3,0.3,0.8,0.3,1.1,0l12.6,12.6
			c-0.3,0.3-0.3,0.8,0,1.1l2.7,2.7c0.1,0.1,0.3,0.2,0.5,0.2c0,0,0,0,0.1,0L813.1,82.5L813.1,82.5z"/>
	</g>
	<g>
		<path class="st5" d="M830,80.5c-4.1-4.1-10.8-4.1-14.9,0l-1.9,1.9v29.4c0.2,0,0.3-0.1,0.5-0.2L830,95.4
			C834.1,91.3,834.1,84.6,830,80.5z"/>
	</g>
	<g>
		<rect x="831.7" y="129.2" class="st19" width="50.6" height="17.7"/>
		<path class="st8" d="M882.3,147.4h-50.6c-0.3,0-0.5-0.2-0.5-0.5v-17.7c0-0.3,0.2-0.5,0.5-0.5h50.6c0.3,0,0.5,0.2,0.5,0.5v17.7
			C882.8,147.2,882.6,147.4,882.3,147.4z M832.2,146.4h49.6v-16.7h-49.6V146.4z"/>
	</g>
	<g>
		<rect x="833.5" y="131" class="st10" width="2.5" height="2.5"/>
	</g>
	<g>
		<rect x="833.5" y="135" class="st10" width="2.5" height="2.5"/>
	</g>
	<g>
		<rect x="833.5" y="138.9" class="st10" width="6.4" height="2.5"/>
	</g>
	<g>
		<rect x="833.5" y="142.8" class="st10" width="2.5" height="2.5"/>
	</g>
	<g>
		<rect x="837.4" y="131" class="st10" width="2.5" height="2.5"/>
	</g>
	<g>
		<rect x="837.4" y="135" class="st10" width="2.5" height="2.5"/>
	</g>
	<g>
		<rect x="837.4" y="142.8" class="st10" width="2.5" height="2.5"/>
	</g>
	<g>
		<rect x="841.3" y="131" class="st10" width="2.5" height="2.5"/>
	</g>
	<g>
		<rect x="841.3" y="135" class="st10" width="2.5" height="2.5"/>
	</g>
	<g>
		<rect x="841.3" y="138.9" class="st10" width="2.5" height="2.5"/>
	</g>
	<g>
		<rect x="841.3" y="142.8" class="st10" width="18.1" height="2.5"/>
	</g>
	<g>
		<rect x="845.2" y="131" class="st10" width="2.5" height="2.5"/>
	</g>
	<g>
		<rect x="845.2" y="135" class="st10" width="2.5" height="2.5"/>
	</g>
	<g>
		<rect x="845.2" y="138.9" class="st10" width="2.5" height="2.5"/>
	</g>
	<g>
		<rect x="849.1" y="131" class="st10" width="2.5" height="2.5"/>
	</g>
	<g>
		<rect x="849.1" y="135" class="st10" width="2.5" height="2.5"/>
	</g>
	<g>
		<rect x="849.1" y="138.9" class="st10" width="2.5" height="2.5"/>
	</g>
	<g>
		<rect x="853" y="131" class="st10" width="2.5" height="2.5"/>
	</g>
	<g>
		<rect x="853" y="135" class="st10" width="2.5" height="2.5"/>
	</g>
	<g>
		<rect x="853" y="138.9" class="st10" width="2.5" height="2.5"/>
	</g>
	<g>
		<rect x="856.9" y="131" class="st10" width="2.5" height="2.5"/>
	</g>
	<g>
		<rect x="856.9" y="135" class="st10" width="2.5" height="2.5"/>
	</g>
	<g>
		<rect x="856.9" y="138.9" class="st10" width="2.5" height="2.5"/>
	</g>
	<g>
		<rect x="860.9" y="131" class="st10" width="2.5" height="2.5"/>
	</g>
	<g>
		<rect x="860.9" y="135" class="st10" width="2.5" height="2.5"/>
	</g>
	<g>
		<rect x="860.9" y="142.8" class="st10" width="2.5" height="2.5"/>
	</g>
	<g>
		<rect x="864.8" y="131" class="st10" width="2.5" height="2.5"/>
	</g>
	<g>
		<rect x="864.8" y="135" class="st10" width="2.5" height="2.5"/>
	</g>
	<g>
		<rect x="860.9" y="138.9" class="st10" width="6.4" height="2.5"/>
	</g>
	<g>
		<rect x="864.8" y="142.8" class="st10" width="2.5" height="2.5"/>
	</g>
	<g>
		<rect x="869.7" y="131" class="st10" width="2.5" height="2.5"/>
	</g>
	<g>
		<rect x="869.7" y="135" class="st10" width="2.5" height="2.5"/>
	</g>
	<g>
		<rect x="869.7" y="142.8" class="st10" width="2.5" height="2.5"/>
	</g>
	<g>
		<rect x="873.6" y="131" class="st10" width="2.5" height="2.5"/>
	</g>
	<g>
		<rect x="873.6" y="135" class="st10" width="2.5" height="2.5"/>
	</g>
	<g>
		<rect x="873.6" y="138.9" class="st10" width="2.5" height="2.5"/>
	</g>
	<g>
		<rect x="873.6" y="142.8" class="st10" width="2.5" height="2.5"/>
	</g>
	<g>
		<rect x="877.5" y="131" class="st10" width="2.5" height="2.5"/>
	</g>
	<g>
		<rect x="877.5" y="135" class="st10" width="2.5" height="2.5"/>
	</g>
	<g>
		<rect x="877.5" y="142.8" class="st10" width="2.5" height="2.5"/>
	</g>
	<g>
		<path class="st10" d="M877.1,43v1.5c-0.6,0.1-1.2,0.4-1.6,0.7l-1-1l-1.4,1.4l1,1c-0.3,0.5-0.6,1-0.7,1.6H872V50h1.5
			c0.1,0.6,0.4,1.2,0.7,1.6l-1,1l1.4,1.4l1-1c0.5,0.3,1,0.6,1.6,0.7v1.5h1V43H877.1z"/>
	</g>
	<g>
		<path class="st5" d="M884.2,50v-1.9h-1.5c-0.1-0.6-0.4-1.2-0.7-1.6l1-1l-1.4-1.4l-1,1c-0.5-0.3-1-0.6-1.6-0.7V43h-1v12.2h1v-1.5
			c0.6-0.1,1.2-0.4,1.6-0.7l1,1l1.4-1.4l-1-1c0.3-0.5,0.6-1,0.7-1.6H884.2z"/>
	</g>
	<g>
		<path class="st8" d="M885,61.7c-0.1,0-0.3,0-0.4-0.1c-0.2-0.2-0.2-0.5,0-0.7l2.3-2.3l-2.3-2.3c-0.2-0.2-0.2-0.5,0-0.7
			c0.2-0.2,0.5-0.2,0.7,0l2.6,2.6c0.2,0.2,0.2,0.5,0,0.7l-2.6,2.6C885.2,61.7,885.1,61.7,885,61.7z"/>
	</g>
	<g>
		<path class="st8" d="M887.6,59.1h-9.5c-5.5,0-10-4.5-10-10s4.5-10,10-10s10,4.5,10,10c0,0.3-0.2,0.5-0.5,0.5s-0.5-0.2-0.5-0.5
			c0-5-4-9-9-9s-9,4-9,9s4,9,9,9h9.5c0.3,0,0.5,0.2,0.5,0.5C888.1,58.9,887.9,59.1,887.6,59.1z"/>
	</g>
	<g>
		<polygon class="st10" points="841.1,56.7 796.9,56.7 796.9,56.3 840.6,56.3 840.6,28.3 866.5,28.3 866.5,28.8 841.1,28.8 		"/>
	</g>
	<g>
		<rect x="807.1" y="59.7" class="st10" width="24.8" height="0.5"/>
	</g>
	<g>
		<path class="st10" d="M868.6,31.1c-1.4,0-2.6-1.2-2.6-2.6c0-1.4,1.2-2.6,2.6-2.6c1.4,0,2.6,1.2,2.6,2.6
			C871.2,30,870.1,31.1,868.6,31.1z M868.6,26.4c-1.2,0-2.1,0.9-2.1,2.1c0,1.2,0.9,2.1,2.1,2.1c1.2,0,2.1-0.9,2.1-2.1
			C870.7,27.4,869.8,26.4,868.6,26.4z"/>
	</g>
	<g>
		<path class="st10" d="M794.5,58.7c-1.4,0-2.6-1.2-2.6-2.6c0-1.4,1.2-2.6,2.6-2.6c1.4,0,2.6,1.2,2.6,2.6
			C797.2,57.6,796,58.7,794.5,58.7z M794.5,54c-1.2,0-2.1,0.9-2.1,2.1c0,1.2,0.9,2.1,2.1,2.1c1.2,0,2.1-0.9,2.1-2.1
			C796.7,55,795.7,54,794.5,54z"/>
	</g>
	<g id="XMLID_2150_">
		<circle class="st19" cx="803.5" cy="101.8" r="9.6"/>
		<path class="st8" d="M803.5,111.9c-5.6,0-10.1-4.5-10.1-10.1s4.5-10.1,10.1-10.1c5.6,0,10.1,4.5,10.1,10.1
			S809.1,111.9,803.5,111.9z M803.5,92.7c-5,0-9.1,4.1-9.1,9.1s4.1,9.1,9.1,9.1c5,0,9.1-4.1,9.1-9.1S808.5,92.7,803.5,92.7z"/>
	</g>
	<g id="XMLID_2149_">
		<path class="st8" d="M803.5,106.3c-0.3,0-0.5-0.2-0.5-0.5v-8.2c0-0.3,0.2-0.5,0.5-0.5s0.5,0.2,0.5,0.5v8.2
			C804,106.1,803.8,106.3,803.5,106.3z"/>
	</g>
	<g id="XMLID_2148_">
		<path class="st8" d="M807.6,102.3h-8.2c-0.3,0-0.5-0.2-0.5-0.5s0.2-0.5,0.5-0.5h8.2c0.3,0,0.5,0.2,0.5,0.5
			S807.9,102.3,807.6,102.3z"/>
	</g>
	<g>
		<path class="st10" d="M851.5,70.6c-1,0-1.8,0.8-1.8,1.8v36.8c0,1,0.8,1.8,1.8,1.8h20.4c0,2.5-0.3,5.7-1.5,6.8
			c-0.1,0.1-0.2,0.4-0.1,0.5c0.1,0.2,0.3,0.3,0.5,0.3h9.4v-48H851.5z"/>
	</g>
	<g>
		<path class="st5" d="M908.8,70.6h-28.6v48h9.3c0.2,0,0.4-0.1,0.5-0.3c0.1-0.2,0-0.4-0.1-0.5c-1.2-1.1-1.4-4.3-1.5-6.8h20.4
			c1,0,1.8-0.8,1.8-1.8V72.4C910.5,71.4,909.7,70.6,908.8,70.6z"/>
	</g>
	<g id="XMLID_2147_">
		<path class="st19" d="M907.2,76.9v22.6c0,1.4-1.2,2.6-2.6,2.6h-48.8c-1.4,0-2.6-1.2-2.6-2.6V76.9c0-1.4,1.2-2.6,2.6-2.6h48.8
			C906,74.3,907.2,75.5,907.2,76.9z"/>
		<path class="st8" d="M905.9,102.9h-51.5c-1.1,0-2-0.9-2-2V75.6c0-1.1,0.9-2,2-2h51.5c1.1,0,2,0.9,2,2v25.2
			C907.9,102,907,102.9,905.9,102.9z M854.4,75.1c-0.3,0-0.5,0.2-0.5,0.5v25.2c0,0.3,0.2,0.5,0.5,0.5h51.5c0.3,0,0.5-0.2,0.5-0.5
			V75.6c0-0.3-0.2-0.5-0.5-0.5H854.4z"/>
	</g>
	<g>
		<polygon class="st8" points="880.2,117.6 867.9,117.6 867.9,118.8 892.4,118.8 892.4,117.6 		"/>
		<path class="st8" d="M892.4,119.3h-24.5c-0.3,0-0.5-0.2-0.5-0.5v-1.2c0-0.3,0.2-0.5,0.5-0.5h24.5c0.3,0,0.5,0.2,0.5,0.5v1.2
			C892.9,119.1,892.7,119.3,892.4,119.3z M868.4,118.3h23.5v-0.2h-23.5V118.3z"/>
	</g>
	<g>
		<path class="st8" d="M928.2,144.1L928.2,144.1l-8.9-5.2h-0.1l3,5.2H928.2z"/>
	</g>
	<g>
		<path class="st8" d="M922,138.3c-0.6,0-1.2,0.1-1.7,0.2l7.8,4.5C927.4,140.3,924.9,138.3,922,138.3z"/>
	</g>
	<g>
		<path class="st8" d="M928.9,144.1L928.9,144.1l3.4-5.9l-3.4-5.8h-6.7l-3.3,5.8c0.9-0.5,2-0.8,3.1-0.8
			C925.8,137.5,928.8,140.4,928.9,144.1z"/>
	</g>
	<g>
		<path class="st8" d="M915,144.5c0-2.5,1.3-4.6,3.2-5.9h-6.7l-3.3,5.9l3.1,5.5h6.5C916.1,148.7,915,146.7,915,144.5z"/>
	</g>
	<g>
		<path class="st8" d="M917.7,149v-9.1c-1.2,1.1-2,2.7-2,4.5S916.5,147.9,917.7,149z"/>
	</g>
	<g>
		<path class="st8" d="M918.6,139.3C918.5,139.3,918.6,139.3,918.6,139.3l-0.1,10.4c0.1,0,0,0.1,0.1,0.1l3-5.2L918.6,139.3z"/>
	</g>
	<g>
		<path class="st8" d="M928.2,145c0-0.1,0-0.1,0-0.2h-6l-2.9,5.1h0.1L928.2,145z"/>
		<polygon class="st8" points="919.3,150 919.2,150.1 919.4,150 		"/>
	</g>
	<g>
		<path class="st8" d="M928,145.9l-7,4.1h3.8C926.4,149.2,927.6,147.7,928,145.9z"/>
	</g>
	<g>
		<path class="st8" d="M928.9,144.9c0,0.2,0,0.4-0.1,0.6c-0.2,1.8-1.2,3.4-2.6,4.5h5.5L928.9,144.9z"/>
	</g>
	<g>
		<g id="XMLID_2140_">
			<path class="st8" d="M938.1,28.2h-4.5v-1h3.5V7.9c0-0.5-0.4-1-1-1h-25.2c-0.5,0-1,0.4-1,1v10.4h-1V7.9c0-1.1,0.9-1.9,1.9-1.9
				h25.2c1.1,0,1.9,0.9,1.9,1.9V28.2z"/>
		</g>
		<g id="XMLID_2139_">
			<circle class="st8" cx="935.2" cy="8.8" r="0.7"/>
		</g>
		<g id="XMLID_2138_">
			<circle class="st8" cx="932.1" cy="8.8" r="0.7"/>
		</g>
		<g id="XMLID_2137_">
			<circle class="st8" cx="929" cy="8.8" r="0.7"/>
		</g>
		<g>
			<path class="st10" d="M910.9,5.7c-1.2,0-2.1,1-2.1,2.1v3.8h14.8V5.7H910.9z"/>
		</g>
		<g>
			<path class="st5" d="M936.1,5.7h-12.6v5.9h14.1l0.7,0V7.9C938.2,6.7,937.3,5.7,936.1,5.7z"/>
		</g>
		<g id="XMLID_2136_">
			<circle class="st19" cx="935.2" cy="8.8" r="0.7"/>
		</g>
		<g id="XMLID_2135_">
			<circle class="st19" cx="932.1" cy="8.8" r="0.7"/>
		</g>
		<g id="XMLID_2134_">
			<circle class="st19" cx="929" cy="8.8" r="0.7"/>
		</g>
		<g>
			<rect x="904.8" y="23.4" class="st10" width="14.3" height="16.1"/>
		</g>
		<g>
			<rect x="919.1" y="23.4" class="st5" width="15.2" height="16.1"/>
		</g>
		<g id="XMLID_2133_">
			<path class="st8" d="M934.1,23.4H905v-3.8c0-1.1,0.9-1.9,1.9-1.9h25.2c1.1,0,1.9,0.9,1.9,1.9V23.4z M905.9,22.4h27.2v-2.8
				c0-0.5-0.4-1-1-1h-25.2c-0.5,0-1,0.4-1,1V22.4z"/>
		</g>
		<g id="XMLID_2132_">
			<circle class="st8" cx="931.3" cy="20.6" r="0.7"/>
		</g>
		<g id="XMLID_2131_">
			<circle class="st8" cx="928.1" cy="20.6" r="0.7"/>
		</g>
		<g id="XMLID_2130_">
			<circle class="st8" cx="925" cy="20.6" r="0.7"/>
		</g>
	</g>
	<g id="XMLID_2129_">
		<path class="st8" d="M824.9,0v23.3h-7.5c-0.3,0-0.5,0.2-0.5,0.5s0.2,0.5,0.5,0.5h8c0.3,0,0.5-0.2,0.5-0.5V0H824.9z"/>
	</g>
	<g id="XMLID_2128_">
		<path class="st8" d="M821.6,11.1h-4.2c-0.3,0-0.5-0.2-0.5-0.5s0.2-0.5,0.5-0.5h4.2c0.3,0,0.5,0.2,0.5,0.5S821.8,11.1,821.6,11.1z"
			/>
	</g>
	<g id="XMLID_2127_">
		<path class="st8" d="M821.6,7.3h-4.2c-0.3,0-0.5-0.2-0.5-0.5s0.2-0.5,0.5-0.5h4.2c0.3,0,0.5,0.2,0.5,0.5S821.8,7.3,821.6,7.3z"/>
	</g>
	<g id="XMLID_2126_">
		<path class="st8" d="M821.6,3.5h-4.2c-0.3,0-0.5-0.2-0.5-0.5s0.2-0.5,0.5-0.5h4.2c0.3,0,0.5,0.2,0.5,0.5S821.8,3.5,821.6,3.5z"/>
	</g>
	<g id="XMLID_2125_">
		<path class="st8" d="M801.3,23.3h-7.5V0h-1v23.8c0,0.3,0.2,0.5,0.5,0.5h8c0.3,0,0.5-0.2,0.5-0.5S801.6,23.3,801.3,23.3z"/>
	</g>
	<g id="XMLID_2124_">
		<path class="st8" d="M801.3,11.1h-4.2c-0.3,0-0.5-0.2-0.5-0.5s0.2-0.5,0.5-0.5h4.2c0.3,0,0.5,0.2,0.5,0.5S801.6,11.1,801.3,11.1z"
			/>
	</g>
	<g id="XMLID_2123_">
		<path class="st8" d="M801.3,7.3h-4.2c-0.3,0-0.5-0.2-0.5-0.5s0.2-0.5,0.5-0.5h4.2c0.3,0,0.5,0.2,0.5,0.5S801.6,7.3,801.3,7.3z"/>
	</g>
	<g id="XMLID_2122_">
		<path class="st8" d="M801.3,3.5h-4.2c-0.3,0-0.5-0.2-0.5-0.5s0.2-0.5,0.5-0.5h4.2c0.3,0,0.5,0.2,0.5,0.5S801.6,3.5,801.3,3.5z"/>
	</g>
	<g>
		<path class="st10" d="M800.7,0v27.6c0,0.4,0.3,0.7,0.7,0.7h7.9V0H800.7z"/>
	</g>
	<g>
		<path class="st5" d="M809.2,0v28.3h8.1c0.4,0,0.7-0.3,0.7-0.7V0H809.2z"/>
	</g>
	<g id="XMLID_2121_">
		<path class="st19" d="M813.6,7.3h-8.4c-0.3,0-0.5-0.2-0.5-0.5s0.2-0.5,0.5-0.5h8.4c0.3,0,0.5,0.2,0.5,0.5S813.8,7.3,813.6,7.3z"/>
	</g>
	<g id="XMLID_2120_">
		<path class="st19" d="M813.6,3.5h-8.4c-0.3,0-0.5-0.2-0.5-0.5s0.2-0.5,0.5-0.5h8.4c0.3,0,0.5,0.2,0.5,0.5S813.8,3.5,813.6,3.5z"/>
	</g>
	<g id="XMLID_2119_">
		<path class="st8" d="M953.7,135.9h-6c-0.3,0-0.5-0.2-0.5-0.5c0-0.3,0.2-0.5,0.5-0.5h6c0.3,0,0.5,0.2,0.5,0.5
			C954.2,135.7,954,135.9,953.7,135.9z"/>
	</g>
	<g id="XMLID_2118_">
		<path class="st8" d="M953.7,125.1H948c-0.3,0-0.5-0.2-0.5-0.5c0-0.3,0.2-0.5,0.5-0.5h5.7c0.3,0,0.5,0.2,0.5,0.5
			C954.2,124.9,954,125.1,953.7,125.1z"/>
	</g>
	<g>
		<path class="st8" d="M950.1,127.6c-0.1,0-0.3,0-0.4-0.1l-2.4-2.4c-0.1-0.1-0.1-0.2-0.1-0.4c0-0.1,0.1-0.3,0.1-0.4l2.4-2.4
			c0.2-0.2,0.5-0.2,0.7,0c0.2,0.2,0.2,0.5,0,0.7l-2.1,2.1l2.1,2.1c0.2,0.2,0.2,0.5,0,0.7C950.4,127.5,950.3,127.6,950.1,127.6z"/>
	</g>
	<g>
		<path class="st5" d="M960.6,140.2C960.6,140.2,960.6,140.2,960.6,140.2c-0.7-0.2-2-3.8-2-10.2c0,0,0,0,0,0h-6.5c0,0,0,0,0,0
			c0,4.3,0.7,11.5,3.2,11.5h5.1h0c0.4,0,0.7-0.3,0.7-0.7C961.2,140.5,961,140.3,960.6,140.2z"/>
	</g>
	<g>
		<path class="st10" d="M960.6,119.9c0.4,0,0.7-0.3,0.7-0.7s-0.3-0.7-0.7-0.7h-5.1c-2.5,0-3.2,7.2-3.2,11.5h6.5
			C958.7,123.7,959.9,120.1,960.6,119.9z"/>
	</g>
	<g id="XMLID_2117_">
		<path class="st8" d="M969.1,135.9h-10.2c-0.3,0-0.5-0.2-0.5-0.5c0-0.3,0.2-0.5,0.5-0.5h10.2c0.3,0,0.5,0.2,0.5,0.5
			C969.6,135.7,969.3,135.9,969.1,135.9z"/>
	</g>
	<g id="XMLID_2116_">
		<path class="st8" d="M969.3,125.1h-10.5c-0.3,0-0.5-0.2-0.5-0.5s0.2-0.5,0.5-0.5h10.5c0.3,0,0.5,0.2,0.5,0.5
			S969.6,125.1,969.3,125.1z"/>
	</g>
	<g>
		<path class="st8" d="M966.9,138.4c-0.1,0-0.3,0-0.4-0.1c-0.2-0.2-0.2-0.5,0-0.7l2.1-2.1l-2.1-2.1c-0.2-0.2-0.2-0.5,0-0.7
			s0.5-0.2,0.7,0l2.4,2.4c0.1,0.1,0.1,0.2,0.1,0.4c0,0.1-0.1,0.3-0.1,0.4l-2.4,2.4C967.2,138.3,967,138.4,966.9,138.4z"/>
	</g>
	<g id="XMLID_2115_">
		<path class="st8" d="M961.1,141.3c-2.1,0-3.1-5.9-3.1-11.3c0-5.4,1-11.3,3.1-11.3c2.1,0,3.1,5.9,3.1,11.3
			C964.2,135.5,963.2,141.3,961.1,141.3z M961.1,119.7c-0.7,0-2.1,3.6-2.1,10.3c0,6.7,1.4,10.3,2.1,10.3c0.7,0,2.1-3.6,2.1-10.3
			C963.2,123.3,961.8,119.7,961.1,119.7z"/>
	</g>
	<g>
		<path class="st5" d="M957.7,56.4L941.1,86c0,0,0.1,0,0.1,0c5.2,3.2,5.4,9.4,5.4,9.5c0,0.3,0.2,0.6,0.4,0.7
			c0.1,0.1,0.3,0.1,0.4,0.1c0.1,0,0.3,0,0.4-0.1l5.3-3.1c0.2-0.1,0.3-0.3,0.4-0.5c0.1-0.2,0-0.4-0.1-0.6l-3-5.2
			c-0.2-0.3-0.1-0.6,0-0.9l4.1-5.7c2.8-3.9,4.3-8.5,4.3-13.3l0-8.4C958.9,57.7,958.5,56.9,957.7,56.4z"/>
	</g>
	<g>
		<path class="st10" d="M957.7,56.4c-0.8-0.5-1.7-0.5-2.5,0l-7.3,4.2c-4.2,2.4-7.4,6-9.4,10.3l-2.9,6.4c-0.1,0.3-0.4,0.5-0.8,0.5h-6
			c-0.2,0-0.4,0.1-0.6,0.2c-0.2,0.2-0.2,0.4-0.2,0.6l0,6.2c0,0.3,0.1,0.5,0.4,0.7c0.2,0.2,0.5,0.2,0.8,0.1c0.1,0,6.7-2.7,11.9,0.4
			L957.7,56.4C957.7,56.4,957.7,56.4,957.7,56.4z"/>
	</g>
	<g>
		<ellipse transform="matrix(0.5 -0.866 0.866 0.5 413.4369 857.8833)" class="st19" cx="949.7" cy="70.9" rx="3.8" ry="3.8"/>
	</g>
	<g>
		<path class="st8" d="M949.7,75.5c-0.8,0-1.6-0.2-2.3-0.6c-1.1-0.6-1.8-1.6-2.2-2.8c-0.3-1.2-0.2-2.4,0.5-3.5
			c1.3-2.2,4.1-3,6.3-1.7v0c2.2,1.3,3,4.1,1.7,6.3c-0.6,1.1-1.6,1.8-2.8,2.2C950.5,75.5,950.1,75.5,949.7,75.5z M949.7,68
			c-1,0-2,0.5-2.5,1.5c-0.8,1.4-0.3,3.2,1.1,4c0.7,0.4,1.5,0.5,2.2,0.3c0.8-0.2,1.4-0.7,1.8-1.4c0.8-1.4,0.3-3.2-1.1-4
			C950.7,68.1,950.2,68,949.7,68z"/>
	</g>
	<g>
		<path class="st8" d="M937.7,96.2c-0.3,0-0.6-0.2-0.8-0.5c-0.2-0.4,0-0.9,0.4-1.1c0.8-0.4,2.9-1.4,3.4-2.4l0.1-0.1
			c0.4-0.7,0.5-1.5,0.3-2.2c-0.2-0.8-0.7-1.4-1.4-1.8c-0.4-0.2-0.5-0.7-0.3-1.2c0.2-0.4,0.7-0.5,1.2-0.3c2.2,1.3,3,4.1,1.7,6.3
			l-0.1,0.1c-0.7,1.2-2.4,2.2-4.1,3C938,96.2,937.9,96.2,937.7,96.2z"/>
	</g>
	<g>
		<polygon class="st10" points="985.8,76.7 985.3,76.7 985.3,33 957.3,33 957.3,7.1 957.8,7.1 957.8,32.5 985.8,32.5 		"/>
	</g>
	<g>
		<rect x="988.7" y="41.7" class="st10" width="0.5" height="24.8"/>
	</g>
	<g>
		<path class="st10" d="M957.6,7.6c-1.4,0-2.6-1.2-2.6-2.6c0-1.4,1.2-2.6,2.6-2.6c1.4,0,2.6,1.2,2.6,2.6
			C960.2,6.4,959,7.6,957.6,7.6z M957.6,2.9c-1.2,0-2.1,0.9-2.1,2.1c0,1.2,0.9,2.1,2.1,2.1c1.2,0,2.1-0.9,2.1-2.1
			C959.7,3.8,958.7,2.9,957.6,2.9z"/>
	</g>
	<g>
		<path class="st10" d="M985.2,81.7c-1.4,0-2.6-1.2-2.6-2.6c0-1.4,1.2-2.6,2.6-2.6c1.4,0,2.6,1.2,2.6,2.6
			C987.8,80.5,986.6,81.7,985.2,81.7z M985.2,76.9c-1.2,0-2.1,0.9-2.1,2.1c0,1.2,0.9,2.1,2.1,2.1c1.2,0,2.1-0.9,2.1-2.1
			C987.3,77.9,986.3,76.9,985.2,76.9z"/>
	</g>
	<g id="XMLID_2114_">
		<path class="st8" d="M990.8,130.6c-0.1,0-0.3,0-0.4-0.1c-0.4-0.2-0.5-0.7-0.3-1l3-5.2c0.2-0.4,0.7-0.5,1-0.3
			c0.4,0.2,0.5,0.7,0.3,1l-1.2,2.1c2.5,1.3,5.2,2,8,2c0,0,0,0,0,0c6.2,0,11.9-3.3,15-8.6c1.5-2.6,2.3-5.6,2.3-8.6
			c0-5.9-3.1-11.4-8-14.6l-1.2,2.1c-0.2,0.4-0.7,0.5-1,0.3c-0.4-0.2-0.5-0.7-0.3-1l1.6-2.7c0,0,0,0,0,0c0,0,0,0,0,0l1.4-2.4
			c0.2-0.4,0.7-0.5,1-0.3c0.4,0.2,0.5,0.7,0.3,1l-1,1.8c5.4,3.4,8.7,9.4,8.7,15.9c0,3.3-0.9,6.5-2.5,9.4c-3.3,5.8-9.6,9.4-16.2,9.4
			c0,0,0,0,0,0c-3,0-6-0.7-8.7-2.2l-1,1.8C991.4,130.5,991.1,130.6,990.8,130.6z"/>
	</g>
	<g>
		<path class="st8" d="M1119.8,102.9h-11.5c-0.3,0-0.5-0.2-0.5-0.5s0.2-0.5,0.5-0.5h11V88.7c0-0.3,0.2-0.5,0.5-0.5h10.7V74.5
			c0-0.3,0.2-0.5,0.5-0.5s0.5,0.2,0.5,0.5v14.3c0,0.3-0.2,0.5-0.5,0.5h-10.7v13.2C1120.3,102.7,1120,102.9,1119.8,102.9z"/>
	</g>
	<g>
		<path class="st10" d="M1001.3,96.5c-8.5,0-15.3,6.9-15.3,15.3c0,5.7,3.1,10.6,7.7,13.3l15.3-26.5
			C1006.7,97.3,1004.1,96.5,1001.3,96.5z"/>
	</g>
	<g>
		<path class="st5" d="M1008.9,98.6l-15.3,26.5c2.3,1.3,4.9,2.1,7.7,2.1c8.5,0,15.3-6.9,15.3-15.3
			C1016.6,106.2,1013.5,101.2,1008.9,98.6z"/>
	</g>
	<g>
		<path class="st10" d="M1039.1,46.9l-2-2c-4.1-4.1-10.8-4.1-14.9,0s-4.1,10.8,0,14.9c0.3,0.3,0.8,0.3,1.1,0l12.6,12.6
			c-0.3,0.3-0.3,0.8,0,1.1l2.7,2.7c0.1,0.1,0.3,0.2,0.5,0.2c0,0,0,0,0.1,0L1039.1,46.9L1039.1,46.9z"/>
	</g>
	<g>
		<path class="st5" d="M1056,44.9c-4.1-4.1-10.8-4.1-14.9,0l-1.9,1.9v29.4c0.2,0,0.3-0.1,0.5-0.2l16.3-16.3
			C1060.1,55.7,1060.1,49,1056,44.9z"/>
	</g>
	<g>
		<path class="st10" d="M975.7,0c-0.1,0.6-0.2,1.3-0.2,2c0,2.5,1.1,5.1,3.2,7.3c2,2.1,2.5,3.5,2.5,5.1v0.5c0,0.3,0.3,0.6,0.6,0.6
			h3.2V0H975.7z"/>
	</g>
	<g>
		<path class="st5" d="M985,0v15.4h3.9c0.3,0,0.6-0.3,0.6-0.6v-0.5c0-1.5,0.4-2.9,2.5-5.1c2.1-2.2,3.2-4.8,3.2-7.3
			c0-0.7-0.1-1.3-0.2-2H985z"/>
	</g>
	<g id="XMLID_2113_">
		<path class="st22" d="M988.9,17.8h-7.1c-0.3,0-0.5-0.2-0.5-0.5c0-0.3,0.2-0.5,0.5-0.5h7.1c0.3,0,0.5,0.2,0.5,0.5
			C989.4,17.5,989.1,17.8,988.9,17.8z"/>
	</g>
	<g id="XMLID_2112_">
		<path class="st22" d="M988.9,20.2h-7.1c-0.3,0-0.5-0.2-0.5-0.5c0-0.3,0.2-0.5,0.5-0.5h7.1c0.3,0,0.5,0.2,0.5,0.5
			C989.4,20,989.1,20.2,988.9,20.2z"/>
	</g>
	<g id="XMLID_2111_">
		<path class="st22" d="M987.5,22.7h-4.3c-0.3,0-0.5-0.2-0.5-0.5c0-0.3,0.2-0.5,0.5-0.5h4.3c0.3,0,0.5,0.2,0.5,0.5
			C988,22.5,987.8,22.7,987.5,22.7z"/>
	</g>
	<g id="XMLID_2110_">
		<path class="st8" d="M1069.8,143.4h-5.6c-0.3,0-0.5-0.2-0.5-0.5c0-0.3,0.2-0.5,0.5-0.5h5.6c0.3,0,0.5,0.2,0.5,0.5
			C1070.3,143.2,1070.1,143.4,1069.8,143.4z"/>
	</g>
	<g id="XMLID_2109_">
		<path class="st8" d="M1078.7,143.4h-7.1c-0.3,0-0.5-0.2-0.5-0.5c0-0.3,0.2-0.5,0.5-0.5h7.1c0.3,0,0.5,0.2,0.5,0.5
			C1079.2,143.2,1078.9,143.4,1078.7,143.4z"/>
	</g>
	<g id="XMLID_2108_">
		<path class="st8" d="M1062.4,143.4h-5.6c-0.3,0-0.5-0.2-0.5-0.5c0-0.3,0.2-0.5,0.5-0.5h5.6c0.3,0,0.5,0.2,0.5,0.5
			C1062.9,143.2,1062.7,143.4,1062.4,143.4z"/>
	</g>
	<g>
		<path class="st8" d="M1059.3,145.9c-0.1,0-0.3,0-0.4-0.1l-2.5-2.5c-0.2-0.2-0.2-0.5,0-0.7l2.5-2.5c0.2-0.2,0.5-0.2,0.7,0
			c0.2,0.2,0.2,0.5,0,0.7l-2.1,2.1l2.1,2.1c0.2,0.2,0.2,0.5,0,0.7C1059.5,145.8,1059.4,145.9,1059.3,145.9z"/>
	</g>
	<g>
		<path class="st8" d="M1076.4,145.9c-0.1,0-0.3,0-0.4-0.1c-0.2-0.2-0.2-0.5,0-0.7l2.1-2.1l-2.1-2.1c-0.2-0.2-0.2-0.5,0-0.7
			c0.2-0.2,0.5-0.2,0.7,0l2.5,2.5c0.2,0.2,0.2,0.5,0,0.7l-2.5,2.5C1076.7,145.8,1076.6,145.9,1076.4,145.9z"/>
	</g>
	<g id="XMLID_2107_">
		<path class="st8" d="M1071.5,147.1c-0.3,0-0.5-0.2-0.5-0.5V142c0-1.8-1.4-3.2-3.2-3.2c-1.8,0-3.2,1.4-3.2,3.2v4.7
			c0,0.3-0.2,0.5-0.5,0.5s-0.5-0.2-0.5-0.5V142c0-2.3,1.9-4.2,4.2-4.2c2.3,0,4.2,1.9,4.2,4.2v4.7
			C1072,146.9,1071.8,147.1,1071.5,147.1z"/>
	</g>
	<g>
		<path class="st10" d="M1067.9,145c-3.3,0-6.2,2-7.4,4.9h7.4V145z"/>
	</g>
	<g>
		<path class="st5" d="M1067.9,145L1067.9,145l0,4.9h7.4C1074.1,147.1,1071.2,145,1067.9,145z"/>
	</g>
	<g>
		<rect x="1057.7" y="93.5" class="st19" width="50.6" height="17.7"/>
		<path class="st8" d="M1108.3,111.7h-50.6c-0.3,0-0.5-0.2-0.5-0.5V93.5c0-0.3,0.2-0.5,0.5-0.5h50.6c0.3,0,0.5,0.2,0.5,0.5v17.7
			C1108.8,111.5,1108.6,111.7,1108.3,111.7z M1058.2,110.7h49.6V94h-49.6V110.7z"/>
	</g>
	<g>
		<rect x="1059.5" y="95.4" class="st10" width="2.5" height="2.5"/>
	</g>
	<g>
		<rect x="1059.5" y="99.3" class="st10" width="2.5" height="2.5"/>
	</g>
	<g>
		<rect x="1059.5" y="103.2" class="st10" width="6.4" height="2.5"/>
	</g>
	<g>
		<rect x="1059.5" y="107.2" class="st10" width="2.5" height="2.5"/>
	</g>
	<g>
		<rect x="1063.5" y="95.4" class="st10" width="2.5" height="2.5"/>
	</g>
	<g>
		<rect x="1063.5" y="99.3" class="st10" width="2.5" height="2.5"/>
	</g>
	<g>
		<rect x="1063.5" y="107.2" class="st10" width="2.5" height="2.5"/>
	</g>
	<g>
		<rect x="1067.4" y="95.4" class="st10" width="2.5" height="2.5"/>
	</g>
	<g>
		<rect x="1067.4" y="99.3" class="st10" width="2.5" height="2.5"/>
	</g>
	<g>
		<rect x="1067.4" y="103.2" class="st10" width="2.5" height="2.5"/>
	</g>
	<g>
		<rect x="1067.4" y="107.2" class="st10" width="18.1" height="2.5"/>
	</g>
	<g>
		<rect x="1071.3" y="95.4" class="st10" width="2.5" height="2.5"/>
	</g>
	<g>
		<rect x="1071.3" y="99.3" class="st10" width="2.5" height="2.5"/>
	</g>
	<g>
		<rect x="1071.3" y="103.2" class="st10" width="2.5" height="2.5"/>
	</g>
	<g>
		<rect x="1075.2" y="95.4" class="st10" width="2.5" height="2.5"/>
	</g>
	<g>
		<rect x="1075.2" y="99.3" class="st10" width="2.5" height="2.5"/>
	</g>
	<g>
		<rect x="1075.2" y="103.2" class="st10" width="2.5" height="2.5"/>
	</g>
	<g>
		<rect x="1079.1" y="95.4" class="st10" width="2.5" height="2.5"/>
	</g>
	<g>
		<rect x="1079.1" y="99.3" class="st10" width="2.5" height="2.5"/>
	</g>
	<g>
		<rect x="1079.1" y="103.2" class="st10" width="2.5" height="2.5"/>
	</g>
	<g>
		<rect x="1083" y="95.4" class="st10" width="2.5" height="2.5"/>
	</g>
	<g>
		<rect x="1083" y="99.3" class="st10" width="2.5" height="2.5"/>
	</g>
	<g>
		<rect x="1083" y="103.2" class="st10" width="2.5" height="2.5"/>
	</g>
	<g>
		<rect x="1086.9" y="95.4" class="st10" width="2.5" height="2.5"/>
	</g>
	<g>
		<rect x="1086.9" y="99.3" class="st10" width="2.5" height="2.5"/>
	</g>
	<g>
		<rect x="1086.9" y="107.2" class="st10" width="2.5" height="2.5"/>
	</g>
	<g>
		<rect x="1090.8" y="95.4" class="st10" width="2.5" height="2.5"/>
	</g>
	<g>
		<rect x="1090.8" y="99.3" class="st10" width="2.5" height="2.5"/>
	</g>
	<g>
		<rect x="1086.9" y="103.2" class="st10" width="6.4" height="2.5"/>
	</g>
	<g>
		<rect x="1090.8" y="107.2" class="st10" width="2.5" height="2.5"/>
	</g>
	<g>
		<rect x="1095.7" y="95.4" class="st10" width="2.5" height="2.5"/>
	</g>
	<g>
		<rect x="1095.7" y="99.3" class="st10" width="2.5" height="2.5"/>
	</g>
	<g>
		<rect x="1095.7" y="107.2" class="st10" width="2.5" height="2.5"/>
	</g>
	<g>
		<rect x="1099.6" y="95.4" class="st10" width="2.5" height="2.5"/>
	</g>
	<g>
		<rect x="1099.6" y="99.3" class="st10" width="2.5" height="2.5"/>
	</g>
	<g>
		<rect x="1099.6" y="103.2" class="st10" width="2.5" height="2.5"/>
	</g>
	<g>
		<rect x="1099.6" y="107.2" class="st10" width="2.5" height="2.5"/>
	</g>
	<g>
		<rect x="1103.5" y="95.4" class="st10" width="2.5" height="2.5"/>
	</g>
	<g>
		<rect x="1103.5" y="99.3" class="st10" width="2.5" height="2.5"/>
	</g>
	<g>
		<rect x="1103.5" y="107.2" class="st10" width="2.5" height="2.5"/>
	</g>
	<g>
		<path class="st10" d="M1103.1,7.3v1.5c-0.6,0.1-1.2,0.4-1.6,0.7l-1-1l-1.4,1.4l1,1c-0.3,0.5-0.6,1-0.7,1.6h-1.5v1.9h1.5
			c0.1,0.6,0.4,1.2,0.7,1.6l-1,1l1.4,1.4l1-1c0.5,0.3,1,0.6,1.6,0.7v1.5h1V7.3H1103.1z"/>
	</g>
	<g>
		<path class="st5" d="M1110.2,14.4v-1.9h-1.5c-0.1-0.6-0.4-1.2-0.7-1.6l1-1l-1.4-1.4l-1,1c-0.5-0.3-1-0.6-1.6-0.7V7.3h-1v12.2h1
			v-1.5c0.6-0.1,1.2-0.4,1.6-0.7l1,1l1.4-1.4l-1-1c0.3-0.5,0.6-1,0.7-1.6H1110.2z"/>
	</g>
	<g>
		<path class="st8" d="M1111,26.1c-0.1,0-0.3,0-0.4-0.1c-0.2-0.2-0.2-0.5,0-0.7l2.3-2.3l-2.3-2.3c-0.2-0.2-0.2-0.5,0-0.7
			c0.2-0.2,0.5-0.2,0.7,0l2.6,2.6c0.2,0.2,0.2,0.5,0,0.7l-2.6,2.6C1111.2,26.1,1111.1,26.1,1111,26.1z"/>
	</g>
	<g>
		<path class="st8" d="M1113.6,23.5h-9.5c-5.5,0-10-4.5-10-10s4.5-10,10-10s10,4.5,10,10c0,0.3-0.2,0.5-0.5,0.5s-0.5-0.2-0.5-0.5
			c0-5-4-9-9-9s-9,4-9,9s4,9,9,9h9.5c0.3,0,0.5,0.2,0.5,0.5C1114.1,23.3,1113.9,23.5,1113.6,23.5z"/>
	</g>
	<g>
		<rect x="1034.7" y="124.2" class="st10" width="0.5" height="25.8"/>
	</g>
	<g>
		<rect x="1102.6" y="132" class="st10" width="24.4" height="0.5"/>
	</g>
	<g>
		<polygon class="st10" points="1064.6,0 1064.6,20.6 1020.9,20.6 1020.9,21.1 1065.1,21.1 1065.1,0 		"/>
	</g>
	<g>
		<rect x="1031.1" y="24" class="st10" width="24.8" height="0.5"/>
	</g>
	<g>
		<path class="st10" d="M1018.6,23.1c-1.4,0-2.6-1.2-2.6-2.6c0-1.4,1.2-2.6,2.6-2.6c1.4,0,2.6,1.2,2.6,2.6
			C1021.2,21.9,1020,23.1,1018.6,23.1z M1018.6,18.4c-1.2,0-2.1,0.9-2.1,2.1c0,1.2,0.9,2.1,2.1,2.1c1.2,0,2.1-0.9,2.1-2.1
			C1020.7,19.3,1019.7,18.4,1018.6,18.4z"/>
	</g>
	<g>
		<path class="st10" d="M1034.8,124.6c-1.4,0-2.6-1.2-2.6-2.6c0-1.4,1.2-2.6,2.6-2.6s2.6,1.2,2.6,2.6
			C1037.4,123.4,1036.3,124.6,1034.8,124.6z M1034.8,119.9c-1.2,0-2.1,0.9-2.1,2.1c0,1.2,0.9,2.1,2.1,2.1s2.1-0.9,2.1-2.1
			C1036.9,120.8,1036,119.9,1034.8,119.9z"/>
	</g>
	<g>
		<path class="st10" d="M1172.6,138.5c-1.4,0-2.6-1.2-2.6-2.6c0-1.4,1.2-2.6,2.6-2.6c1.4,0,2.6,1.2,2.6,2.6
			C1175.2,137.3,1174,138.5,1172.6,138.5z M1172.6,133.8c-1.2,0-2.1,0.9-2.1,2.1c0,1.2,0.9,2.1,2.1,2.1c1.2,0,2.1-0.9,2.1-2.1
			C1174.7,134.7,1173.7,133.8,1172.6,133.8z"/>
	</g>
	<g>
		<polygon class="st10" points="1093.3,136.1 1170.3,136.1 1170.3,135.6 1092.8,135.6 1092.8,150 1093.3,150 		"/>
	</g>
	<g id="XMLID_2105_">
		<circle class="st19" cx="1029.5" cy="66.1" r="9.6"/>
		<path class="st8" d="M1029.5,76.2c-5.6,0-10.1-4.5-10.1-10.1S1024,56,1029.5,56c5.6,0,10.1,4.5,10.1,10.1S1035.1,76.2,1029.5,76.2
			z M1029.5,57c-5,0-9.1,4.1-9.1,9.1c0,5,4.1,9.1,9.1,9.1s9.1-4.1,9.1-9.1C1038.6,61.1,1034.5,57,1029.5,57z"/>
	</g>
	<g id="XMLID_2104_">
		<path class="st8" d="M1029.5,70.7c-0.3,0-0.5-0.2-0.5-0.5V62c0-0.3,0.2-0.5,0.5-0.5s0.5,0.2,0.5,0.5v8.2
			C1030,70.5,1029.8,70.7,1029.5,70.7z"/>
	</g>
	<g id="XMLID_2103_">
		<path class="st8" d="M1033.6,66.6h-8.2c-0.3,0-0.5-0.2-0.5-0.5s0.2-0.5,0.5-0.5h8.2c0.3,0,0.5,0.2,0.5,0.5
			S1033.9,66.6,1033.6,66.6z"/>
	</g>
	<g>
		<path class="st10" d="M1077.5,34.9c-1,0-1.8,0.8-1.8,1.8v36.8c0,1,0.8,1.8,1.8,1.8h20.4c0,2.5-0.3,5.7-1.5,6.8
			c-0.1,0.1-0.2,0.4-0.1,0.5c0.1,0.2,0.3,0.3,0.5,0.3h9.4v-48H1077.5z"/>
	</g>
	<g>
		<path class="st5" d="M1134.8,34.9h-28.6v48h9.3c0.2,0,0.4-0.1,0.5-0.3c0.1-0.2,0-0.4-0.1-0.5c-1.2-1.1-1.4-4.3-1.5-6.8h20.4
			c1,0,1.8-0.8,1.8-1.8V36.7C1136.6,35.7,1135.8,34.9,1134.8,34.9z"/>
	</g>
	<g id="XMLID_2102_">
		<path class="st19" d="M1133.2,41.3v22.6c0,1.4-1.2,2.6-2.6,2.6h-48.8c-1.4,0-2.6-1.2-2.6-2.6V41.3c0-1.4,1.2-2.6,2.6-2.6h48.8
			C1132,38.7,1133.2,39.9,1133.2,41.3z"/>
		<path class="st8" d="M1131.9,67.2h-51.5c-1.1,0-2-0.9-2-2V40c0-1.1,0.9-2,2-2h51.5c1.1,0,2,0.9,2,2v25.2
			C1133.9,66.3,1133,67.2,1131.9,67.2z M1080.4,39.4c-0.3,0-0.5,0.2-0.5,0.5v25.2c0,0.3,0.2,0.5,0.5,0.5h51.5c0.3,0,0.5-0.2,0.5-0.5
			V40c0-0.3-0.2-0.5-0.5-0.5H1080.4z"/>
	</g>
	<g>
		<polygon class="st8" points="1106.2,81.9 1093.9,81.9 1093.9,83.2 1118.4,83.2 1118.4,81.9 		"/>
		<path class="st8" d="M1118.4,83.7h-24.5c-0.3,0-0.5-0.2-0.5-0.5v-1.2c0-0.3,0.2-0.5,0.5-0.5h24.5c0.3,0,0.5,0.2,0.5,0.5v1.2
			C1118.9,83.4,1118.7,83.7,1118.4,83.7z M1094.4,82.7h23.5v-0.2h-23.5V82.7z"/>
	</g>
	<g id="XMLID_2101_">
		<ellipse transform="matrix(0.5 -0.866 0.866 0.5 398.0379 929.9487)" class="st8" cx="1004.4" cy="120.3" rx="0.8" ry="0.8"/>
	</g>
	<g id="XMLID_2100_">
		<ellipse transform="matrix(0.5 -0.866 0.866 0.5 409.7943 929.9387)" class="st8" cx="1010.2" cy="110.1" rx="0.8" ry="0.8"/>
	</g>
	<g id="XMLID_2099_">
		<ellipse transform="matrix(0.5 -0.866 0.866 0.5 403.9247 923.1611)" class="st8" cx="1001.4" cy="111.8" rx="0.8" ry="0.8"/>
	</g>
	<g id="XMLID_2098_">
		<ellipse transform="matrix(0.866 -0.5 0.5 0.866 78.609 520.3425)" class="st8" cx="1010.2" cy="113.5" rx="0.8" ry="0.8"/>
	</g>
	<g id="XMLID_2097_">
		<ellipse transform="matrix(0.866 -0.5 0.5 0.866 81.3438 510.1758)" class="st8" cx="992.6" cy="103.3" rx="0.8" ry="0.8"/>
	</g>
	<g id="XMLID_2096_">
		<ellipse transform="matrix(0.5 -0.866 0.866 0.5 400.9897 914.689)" class="st8" cx="992.6" cy="110.1" rx="0.8" ry="0.8"/>
	</g>
	<g>
		<path class="st8" d="M1154.2,108.5L1154.2,108.5l-8.9-5.2h-0.1l3,5.2H1154.2z"/>
	</g>
	<g>
		<path class="st8" d="M1148,102.6c-0.6,0-1.2,0.1-1.7,0.2l7.8,4.5C1153.4,104.7,1150.9,102.6,1148,102.6z"/>
	</g>
	<g>
		<path class="st8" d="M1155,108.5L1155,108.5l3.4-5.9l-3.4-5.8h-6.7l-3.3,5.8c0.9-0.5,2-0.8,3.1-0.8
			C1151.8,101.9,1154.8,104.8,1155,108.5z"/>
	</g>
	<g>
		<path class="st8" d="M1141,108.8c0-2.5,1.3-4.6,3.2-5.9h-6.7l-3.3,5.9l3.3,5.8h6.7C1142.3,113.5,1141,111.3,1141,108.8z"/>
	</g>
	<g>
		<path class="st8" d="M1143.7,113.4v-9.1c-1.2,1.1-2,2.7-2,4.5C1141.8,110.7,1142.5,112.3,1143.7,113.4z"/>
	</g>
	<g>
		<path class="st8" d="M1144.6,103.6C1144.5,103.6,1144.6,103.7,1144.6,103.6l-0.1,10.4c0.1,0,0,0.1,0.1,0.1l3-5.2L1144.6,103.6z"/>
	</g>
	<g>
		<path class="st8" d="M1145.3,114.5C1145.3,114.5,1145.3,114.5,1145.3,114.5l8.9-5.1c0-0.1,0-0.1,0-0.2h-6L1145.3,114.5z"/>
	</g>
	<g>
		<path class="st8" d="M1154,110.3l-7.8,4.5c0.5,0.2,1.1,0.2,1.7,0.2C1150.9,115.1,1153.4,113,1154,110.3z"/>
	</g>
	<g>
		<path class="st8" d="M1155,109.2c0,0.2,0,0.4-0.1,0.6l0,0l0,0c-0.5,3.4-3.4,6.1-6.9,6.1c-1.1,0-2.2-0.3-3.1-0.8l0,0l3.3,5.9h6.7
			l3.3-5.9L1155,109.2L1155,109.2z"/>
	</g>
	<g>
		<rect x="1130.8" y="0" class="st10" width="14.3" height="8.7"/>
	</g>
	<g>
		<rect x="1145.1" y="0" class="st5" width="15.2" height="8.7"/>
	</g>
	<g>
		<path class="st8" d="M934.8,94.5c-0.4,0-0.8-0.3-0.8-0.8c-0.1-1.8-0.1-3.9,0.6-5l0.1-0.1c1.3-2.2,4.1-3,6.3-1.7
			c0.4,0.2,0.5,0.7,0.3,1.2c-0.2,0.4-0.7,0.5-1.2,0.3c-1.4-0.8-3.2-0.3-4,1.1l-0.1,0.1c-0.5,0.9-0.4,3.3-0.4,4.1
			C935.7,94.1,935.4,94.5,934.8,94.5C934.9,94.5,934.9,94.5,934.8,94.5z"/>
	</g>
	<g id="XMLID_1894_">
		<path class="st8" d="M1180.9,97.9h-6c-0.3,0-0.5-0.2-0.5-0.5s0.2-0.5,0.5-0.5h6c0.3,0,0.5,0.2,0.5,0.5S1181.2,97.9,1180.9,97.9z"
			/>
	</g>
	<g id="XMLID_1893_">
		<path class="st8" d="M1180.9,87.1h-5.7c-0.3,0-0.5-0.2-0.5-0.5c0-0.3,0.2-0.5,0.5-0.5h5.7c0.3,0,0.5,0.2,0.5,0.5
			C1181.4,86.8,1181.2,87.1,1180.9,87.1z"/>
	</g>
	<g>
		<path class="st8" d="M1177.4,89.5c-0.1,0-0.3,0-0.4-0.1l-2.4-2.4c-0.1-0.1-0.1-0.2-0.1-0.4c0-0.1,0.1-0.3,0.1-0.4l2.4-2.4
			c0.2-0.2,0.5-0.2,0.7,0s0.2,0.5,0,0.7l-2.1,2.1l2.1,2.1c0.2,0.2,0.2,0.5,0,0.7C1177.6,89.4,1177.5,89.5,1177.4,89.5z"/>
	</g>
	<g>
		<path class="st5" d="M1187.8,102.2C1187.8,102.2,1187.8,102.2,1187.8,102.2c-0.7-0.2-2-3.8-2-10.2c0,0,0,0,0,0h-6.5c0,0,0,0,0,0
			c0,4.3,0.7,11.5,3.2,11.5h5.1h0c0.4,0,0.7-0.3,0.7-0.7C1188.4,102.5,1188.2,102.2,1187.8,102.2z"/>
	</g>
	<g>
		<path class="st10" d="M1187.8,81.8c0.4,0,0.7-0.3,0.7-0.7s-0.3-0.7-0.7-0.7h-5.1c-2.5,0-3.2,7.2-3.2,11.5h6.5
			C1185.9,85.6,1187.1,82,1187.8,81.8z"/>
	</g>
	<g id="XMLID_1892_">
		<path class="st8" d="M1196.3,97.9h-10.2c-0.3,0-0.5-0.2-0.5-0.5s0.2-0.5,0.5-0.5h10.2c0.3,0,0.5,0.2,0.5,0.5
			S1196.6,97.9,1196.3,97.9z"/>
	</g>
	<g id="XMLID_1891_">
		<path class="st8" d="M1196.6,87.1h-10.5c-0.3,0-0.5-0.2-0.5-0.5s0.2-0.5,0.5-0.5h10.5c0.3,0,0.5,0.2,0.5,0.5
			S1196.8,87.1,1196.6,87.1z"/>
	</g>
	<g>
		<path class="st8" d="M1194.1,100.3c-0.1,0-0.3,0-0.4-0.1c-0.2-0.2-0.2-0.5,0-0.7l2.1-2.1l-2.1-2.1c-0.2-0.2-0.2-0.5,0-0.7
			c0.2-0.2,0.5-0.2,0.7,0l2.4,2.4c0.1,0.1,0.1,0.2,0.1,0.4s-0.1,0.3-0.1,0.4l-2.4,2.4C1194.4,100.3,1194.3,100.3,1194.1,100.3z"/>
	</g>
	<g id="XMLID_1890_">
		<path class="st8" d="M1188.3,103.3c-2.1,0-3.1-5.9-3.1-11.3c0-5.4,1-11.3,3.1-11.3c2.1,0,3.1,5.9,3.1,11.3
			C1191.4,97.4,1190.4,103.3,1188.3,103.3z M1188.3,81.6c-0.7,0-2.1,3.6-2.1,10.3c0,6.7,1.4,10.3,2.1,10.3c0.7,0,2.1-3.6,2.1-10.3
			C1190.4,85.3,1189,81.6,1188.3,81.6z"/>
	</g>
	<g>
		<path class="st5" d="M1182.5,18.2l-16.6,29.6c0,0,0.1,0,0.1,0c5.2,3.2,5.4,9.4,5.4,9.5c0,0.3,0.2,0.6,0.4,0.7
			c0.1,0.1,0.3,0.1,0.4,0.1c0.1,0,0.3,0,0.4-0.1l5.3-3.1c0.2-0.1,0.3-0.3,0.4-0.5c0.1-0.2,0-0.4-0.1-0.6l-3-5.2
			c-0.2-0.3-0.1-0.6,0-0.9l4.1-5.7c2.8-3.9,4.3-8.5,4.3-13.3l0-8.4C1183.7,19.5,1183.3,18.7,1182.5,18.2z"/>
	</g>
	<g>
		<path class="st10" d="M1182.5,18.2c-0.8-0.5-1.7-0.5-2.5,0l-7.3,4.2c-4.2,2.4-7.4,6-9.4,10.3l-2.9,6.4c-0.1,0.3-0.4,0.5-0.8,0.5
			h-6c-0.2,0-0.4,0.1-0.6,0.2c-0.2,0.2-0.2,0.4-0.2,0.6l0,6.2c0,0.3,0.1,0.5,0.4,0.7c0.2,0.2,0.5,0.2,0.8,0.1
			c0.1,0,6.7-2.7,11.9,0.4L1182.5,18.2C1182.5,18.2,1182.5,18.2,1182.5,18.2z"/>
	</g>
	<g>
		<ellipse transform="matrix(0.5 -0.866 0.866 0.5 558.9041 1033.4432)" class="st19" cx="1174.4" cy="32.7" rx="3.8" ry="3.8"/>
	</g>
	<g>
		<path class="st8" d="M1174.4,37.3c-0.8,0-1.6-0.2-2.3-0.6c-1.1-0.6-1.8-1.6-2.2-2.8c-0.3-1.2-0.2-2.4,0.5-3.5
			c1.3-2.2,4.1-3,6.3-1.7v0c2.2,1.3,3,4.1,1.7,6.3c-0.6,1.1-1.6,1.8-2.8,2.2C1175.2,37.3,1174.8,37.3,1174.4,37.3z M1174.4,29.8
			c-1,0-2,0.5-2.5,1.5c-0.8,1.4-0.3,3.2,1.1,4c0.7,0.4,1.5,0.5,2.2,0.3c0.8-0.2,1.4-0.7,1.8-1.4c0.8-1.4,0.3-3.2-1.1-4
			C1175.4,29.9,1174.9,29.8,1174.4,29.8z"/>
	</g>
	<g>
		<path class="st8" d="M1162.5,58c-0.3,0-0.6-0.2-0.8-0.5c-0.2-0.4,0-0.9,0.4-1.1c0.8-0.4,2.9-1.4,3.4-2.4l0.1-0.1
			c0.4-0.7,0.5-1.5,0.3-2.2c-0.2-0.8-0.7-1.4-1.4-1.8c-0.4-0.2-0.5-0.7-0.3-1.2c0.2-0.4,0.7-0.5,1.2-0.3c2.2,1.3,3,4.1,1.7,6.3
			l-0.1,0.1c-0.7,1.2-2.4,2.2-4.1,3C1162.8,58,1162.6,58,1162.5,58z"/>
	</g>
	<g>
		<rect x="1210.1" y="0" class="st10" width="0.5" height="38.5"/>
	</g>
	<g>
		<rect x="1213.5" y="3.5" class="st10" width="0.5" height="24.8"/>
	</g>
	<g>
		<path class="st10" d="M1209.9,43.5c-1.4,0-2.6-1.2-2.6-2.6c0-1.4,1.2-2.6,2.6-2.6c1.4,0,2.6,1.2,2.6,2.6
			C1212.5,42.3,1211.4,43.5,1209.9,43.5z M1209.9,38.7c-1.2,0-2.1,0.9-2.1,2.1c0,1.2,0.9,2.1,2.1,2.1c1.2,0,2.1-0.9,2.1-2.1
			C1212,39.7,1211.1,38.7,1209.9,38.7z"/>
	</g>
	<g id="XMLID_1889_">
		<path class="st8" d="M1217,89.8c-0.1,0-0.3,0-0.4-0.1c-0.4-0.2-0.5-0.7-0.3-1l3-5.2c0.2-0.4,0.7-0.5,1-0.3c0.4,0.2,0.5,0.7,0.3,1
			l-1.2,2.1c2.5,1.3,5.2,2,8,2c0,0,0,0,0,0c6.2,0,11.9-3.3,15-8.6c1.5-2.6,2.3-5.6,2.3-8.6c0-5.9-3.1-11.4-8-14.6l-1.2,2.1
			c-0.2,0.4-0.7,0.5-1,0.3c-0.4-0.2-0.5-0.7-0.3-1l1.6-2.7c0,0,0,0,0,0c0,0,0,0,0,0l1.4-2.4c0.2-0.4,0.7-0.5,1-0.3
			c0.4,0.2,0.5,0.7,0.3,1l-1,1.8c5.4,3.4,8.7,9.4,8.7,15.9c0,3.3-0.9,6.5-2.5,9.4c-3.3,5.8-9.6,9.4-16.2,9.4c0,0,0,0,0,0
			c-3,0-6-0.7-8.7-2.2l-1,1.8C1217.5,89.6,1217.2,89.8,1217,89.8z"/>
	</g>
	<g>
		<path class="st8" d="M1344.5,64.7h-11.5c-0.3,0-0.5-0.2-0.5-0.5s0.2-0.5,0.5-0.5h11V50.5c0-0.3,0.2-0.5,0.5-0.5h10.7V36.3
			c0-0.3,0.2-0.5,0.5-0.5s0.5,0.2,0.5,0.5v14.3c0,0.3-0.2,0.5-0.5,0.5H1345v13.2C1345,64.5,1344.8,64.7,1344.5,64.7z"/>
	</g>
	<g>
		<path class="st10" d="M1227.4,55.7c-8.5,0-15.3,6.9-15.3,15.3c0,5.7,3.1,10.6,7.7,13.3l15.3-26.5
			C1232.8,56.4,1230.2,55.7,1227.4,55.7z"/>
	</g>
	<g>
		<path class="st5" d="M1235.1,57.7l-15.3,26.5c2.3,1.3,4.9,2.1,7.7,2.1c8.5,0,15.3-6.9,15.3-15.3
			C1242.7,65.3,1239.6,60.4,1235.1,57.7z"/>
	</g>
	<g>
		<path class="st10" d="M1263.9,8.7l-2-2c-4.1-4.1-10.8-4.1-14.9,0c-4.1,4.1-4.1,10.8,0,14.9c0.3,0.3,0.8,0.3,1.1,0l12.6,12.6
			c-0.3,0.3-0.3,0.8,0,1.1l2.7,2.7c0.1,0.1,0.3,0.2,0.5,0.2c0,0,0,0,0.1,0L1263.9,8.7L1263.9,8.7z"/>
	</g>
	<g>
		<path class="st5" d="M1280.7,6.7c-4.1-4.1-10.8-4.1-14.9,0l-1.9,1.9v29.4c0.2,0,0.3-0.1,0.5-0.2l16.3-16.3
			C1284.8,17.5,1284.8,10.8,1280.7,6.7z"/>
	</g>
	<g>
		<path class="st10" d="M1261.9,149.2l-10.1-10.1c0.7-2.2,0.1-4.6-1.6-6.3c-1.9-1.9-4.9-2.4-7.3-1.1c-0.2,0.1-0.3,0.3-0.3,0.4
			c0,0.2,0,0.4,0.2,0.5l3.8,3.8c0.4,0.4,0.4,1.1,0,1.6c0,0-0.1,0-0.1,0.1l11.9,11.9h8.8C1265.7,148.9,1263.7,148.6,1261.9,149.2z"/>
	</g>
	<g>
		<path class="st5" d="M1246.6,138.1c-0.4,0.4-1.1,0.3-1.5-0.1l-3.8-3.8c-0.1-0.1-0.3-0.2-0.5-0.2c-0.2,0-0.4,0.1-0.4,0.3
			c-1.3,2.4-0.8,5.4,1.1,7.3c1.6,1.6,4.1,2.2,6.3,1.6l6.7,6.7h4L1246.6,138.1z"/>
		<path class="st5" d="M1247.8,143l-0.1,0c-2.1,0.7-4.5,0.1-6-1.5c-1.9-1.9-2.3-4.7-1.1-7c0.1-0.1,0.1-0.2,0.3-0.2
			c0.1,0,0.2,0,0.3,0.1l3.8,3.8c0.4,0.4,1.1,0.5,1.7,0.2l11.5,11.5h0.7l-12.2-12.2l-0.2,0.1c-0.3,0.3-0.9,0.3-1.2,0l-3.8-3.8
			c-0.2-0.2-0.5-0.3-0.7-0.2c-0.3,0-0.5,0.2-0.6,0.4c-1.3,2.5-0.8,5.6,1.2,7.6c1.7,1.7,4.1,2.3,6.4,1.7l6.4,6.4h0.7L1247.8,143z"/>
	</g>
	<g>
		<path class="st8" d="M1269.2,131.8c-1.1-1.1-3-1.1-4.1,0l-9.1,9.1c-0.2,0.2-0.2,0.6,0,0.8c0.2,0.2,0.6,0.2,0.8,0l9.1-9.1
			c0.7-0.7,1.8-0.7,2.4,0c0.3,0.3,0.5,0.8,0.5,1.2c0,0.5-0.2,0.9-0.5,1.2l-9.1,9.1c-0.2,0.2-0.2,0.6,0,0.8c0.1,0.1,0.3,0.2,0.4,0.2
			s0.3-0.1,0.4-0.2l9.1-9.1C1270.4,134.8,1270.4,133,1269.2,131.8z"/>
	</g>
	<g>
		<path class="st8" d="M1267.5,133.5c-0.2-0.2-0.6-0.2-0.8,0l-9.1,9.1c-0.2,0.2-0.2,0.6,0,0.8c0.1,0.1,0.3,0.2,0.4,0.2
			s0.3-0.1,0.4-0.2l9.1-9.1C1267.7,134.1,1267.7,133.7,1267.5,133.5z"/>
	</g>
	<g>
		<path class="st8" d="M1252,149.8c0.2-0.2,0.2-0.6,0-0.8c-0.2-0.2-0.6-0.2-0.8,0l-1,1h1.7L1252,149.8z"/>
	</g>
	<g id="XMLID_1885_">
		<path class="st8" d="M1294.6,105.2h-5.6c-0.3,0-0.5-0.2-0.5-0.5s0.2-0.5,0.5-0.5h5.6c0.3,0,0.5,0.2,0.5,0.5
			S1294.8,105.2,1294.6,105.2z"/>
	</g>
	<g id="XMLID_1884_">
		<path class="st8" d="M1303.4,105.2h-7.1c-0.3,0-0.5-0.2-0.5-0.5s0.2-0.5,0.5-0.5h7.1c0.3,0,0.5,0.2,0.5,0.5
			S1303.7,105.2,1303.4,105.2z"/>
	</g>
	<g id="XMLID_1883_">
		<path class="st8" d="M1287.2,105.2h-5.6c-0.3,0-0.5-0.2-0.5-0.5s0.2-0.5,0.5-0.5h5.6c0.3,0,0.5,0.2,0.5,0.5
			S1287.4,105.2,1287.2,105.2z"/>
	</g>
	<g>
		<path class="st8" d="M1284,107.7c-0.1,0-0.3,0-0.4-0.1l-2.5-2.5c-0.2-0.2-0.2-0.5,0-0.7l2.5-2.5c0.2-0.2,0.5-0.2,0.7,0
			c0.2,0.2,0.2,0.5,0,0.7l-2.1,2.1l2.1,2.1c0.2,0.2,0.2,0.5,0,0.7C1284.3,107.6,1284.2,107.7,1284,107.7z"/>
	</g>
	<g>
		<path class="st8" d="M1301.2,107.7c-0.1,0-0.3,0-0.4-0.1c-0.2-0.2-0.2-0.5,0-0.7l2.1-2.1l-2.1-2.1c-0.2-0.2-0.2-0.5,0-0.7
			c0.2-0.2,0.5-0.2,0.7,0l2.5,2.5c0.2,0.2,0.2,0.5,0,0.7l-2.5,2.5C1301.5,107.6,1301.3,107.7,1301.2,107.7z"/>
	</g>
	<g id="XMLID_1882_">
		<path class="st8" d="M1296.3,108.9c-0.3,0-0.5-0.2-0.5-0.5v-4.7c0-1.8-1.4-3.2-3.2-3.2c-1.8,0-3.2,1.4-3.2,3.2v4.7
			c0,0.3-0.2,0.5-0.5,0.5s-0.5-0.2-0.5-0.5v-4.7c0-2.3,1.9-4.2,4.2-4.2c2.3,0,4.2,1.9,4.2,4.2v4.7
			C1296.8,108.7,1296.6,108.9,1296.3,108.9z"/>
	</g>
	<g>
		<path class="st10" d="M1284.6,114.9c0,4.4,3.6,8,8,8v-16C1288.2,106.8,1284.6,110.4,1284.6,114.9z"/>
	</g>
	<g>
		<path class="st5" d="M1292.6,106.8L1292.6,106.8l0,16h0c4.4,0,8-3.6,8-8S1297.1,106.8,1292.6,106.8z"/>
	</g>
	<g>
		<circle class="st8" cx="1292.6" cy="114" r="1.3"/>
	</g>
	<g id="XMLID_1881_">
		<path class="st8" d="M1292.6,117.4c-0.3,0-0.5-0.2-0.5-0.5V114c0-0.3,0.2-0.5,0.5-0.5s0.5,0.2,0.5,0.5v2.9
			C1293.1,117.1,1292.9,117.4,1292.6,117.4z"/>
	</g>
	<g>
		<rect x="1282.5" y="55.3" class="st19" width="50.6" height="17.7"/>
		<path class="st8" d="M1333.1,73.5h-50.6c-0.3,0-0.5-0.2-0.5-0.5V55.3c0-0.3,0.2-0.5,0.5-0.5h50.6c0.3,0,0.5,0.2,0.5,0.5V73
			C1333.6,73.3,1333.3,73.5,1333.1,73.5z M1283,72.5h49.6V55.8H1283V72.5z"/>
	</g>
	<g>
		<rect x="1284.3" y="57.2" class="st10" width="2.5" height="2.5"/>
	</g>
	<g>
		<rect x="1284.3" y="61.1" class="st10" width="2.5" height="2.5"/>
	</g>
	<g>
		<rect x="1284.3" y="65" class="st10" width="6.4" height="2.5"/>
	</g>
	<g>
		<rect x="1284.3" y="69" class="st10" width="2.5" height="2.5"/>
	</g>
	<g>
		<rect x="1288.2" y="57.2" class="st10" width="2.5" height="2.5"/>
	</g>
	<g>
		<rect x="1288.2" y="61.1" class="st10" width="2.5" height="2.5"/>
	</g>
	<g>
		<rect x="1288.2" y="69" class="st10" width="2.5" height="2.5"/>
	</g>
	<g>
		<rect x="1292.1" y="57.2" class="st10" width="2.5" height="2.5"/>
	</g>
	<g>
		<rect x="1292.1" y="61.1" class="st10" width="2.5" height="2.5"/>
	</g>
	<g>
		<rect x="1292.1" y="65" class="st10" width="2.5" height="2.5"/>
	</g>
	<g>
		<rect x="1292.1" y="69" class="st10" width="18.1" height="2.5"/>
	</g>
	<g>
		<rect x="1296" y="57.2" class="st10" width="2.5" height="2.5"/>
	</g>
	<g>
		<rect x="1296" y="61.1" class="st10" width="2.5" height="2.5"/>
	</g>
	<g>
		<rect x="1296" y="65" class="st10" width="2.5" height="2.5"/>
	</g>
	<g>
		<rect x="1299.9" y="57.2" class="st10" width="2.5" height="2.5"/>
	</g>
	<g>
		<rect x="1299.9" y="61.1" class="st10" width="2.5" height="2.5"/>
	</g>
	<g>
		<rect x="1299.9" y="65" class="st10" width="2.5" height="2.5"/>
	</g>
	<g>
		<rect x="1303.8" y="57.2" class="st10" width="2.5" height="2.5"/>
	</g>
	<g>
		<rect x="1303.8" y="61.1" class="st10" width="2.5" height="2.5"/>
	</g>
	<g>
		<rect x="1303.8" y="65" class="st10" width="2.5" height="2.5"/>
	</g>
	<g>
		<rect x="1307.7" y="57.2" class="st10" width="2.5" height="2.5"/>
	</g>
	<g>
		<rect x="1307.7" y="61.1" class="st10" width="2.5" height="2.5"/>
	</g>
	<g>
		<rect x="1307.7" y="65" class="st10" width="2.5" height="2.5"/>
	</g>
	<g>
		<rect x="1311.6" y="57.2" class="st10" width="2.5" height="2.5"/>
	</g>
	<g>
		<rect x="1311.6" y="61.1" class="st10" width="2.5" height="2.5"/>
	</g>
	<g>
		<rect x="1311.6" y="69" class="st10" width="2.5" height="2.5"/>
	</g>
	<g>
		<rect x="1315.5" y="57.2" class="st10" width="2.5" height="2.5"/>
	</g>
	<g>
		<rect x="1315.5" y="61.1" class="st10" width="2.5" height="2.5"/>
	</g>
	<g>
		<rect x="1311.6" y="65" class="st10" width="6.4" height="2.5"/>
	</g>
	<g>
		<rect x="1315.5" y="69" class="st10" width="2.5" height="2.5"/>
	</g>
	<g>
		<rect x="1320.5" y="57.2" class="st10" width="2.5" height="2.5"/>
	</g>
	<g>
		<rect x="1320.5" y="61.1" class="st10" width="2.5" height="2.5"/>
	</g>
	<g>
		<rect x="1320.5" y="69" class="st10" width="2.5" height="2.5"/>
	</g>
	<g>
		<rect x="1324.4" y="57.2" class="st10" width="2.5" height="2.5"/>
	</g>
	<g>
		<rect x="1324.4" y="61.1" class="st10" width="2.5" height="2.5"/>
	</g>
	<g>
		<rect x="1324.4" y="65" class="st10" width="2.5" height="2.5"/>
	</g>
	<g>
		<rect x="1324.4" y="69" class="st10" width="2.5" height="2.5"/>
	</g>
	<g>
		<rect x="1328.3" y="57.2" class="st10" width="2.5" height="2.5"/>
	</g>
	<g>
		<rect x="1328.3" y="61.1" class="st10" width="2.5" height="2.5"/>
	</g>
	<g>
		<rect x="1328.3" y="69" class="st10" width="2.5" height="2.5"/>
	</g>
	<g>
		<polygon class="st10" points="1210.3,129.5 1209.8,129.5 1209.8,116.6 1259.5,116.6 1259.5,86 1260,86 1260,117.1 1210.3,117.1 		
			"/>
	</g>
	<g>
		<rect x="1226.9" y="113.4" class="st10" width="24.4" height="0.5"/>
	</g>
	<g>
		<rect x="1327.4" y="93.8" class="st10" width="24.4" height="0.5"/>
	</g>
	<g>
		<path class="st10" d="M1259.6,86.4c-1.4,0-2.6-1.2-2.6-2.6c0-1.4,1.2-2.6,2.6-2.6s2.6,1.2,2.6,2.6
			C1262.2,85.2,1261,86.4,1259.6,86.4z M1259.6,81.7c-1.2,0-2.1,0.9-2.1,2.1c0,1.2,0.9,2.1,2.1,2.1s2.1-0.9,2.1-2.1
			C1261.7,82.6,1260.8,81.7,1259.6,81.7z"/>
	</g>
	<g>
		<path class="st10" d="M1210.1,134.3c-1.4,0-2.6-1.2-2.6-2.6s1.2-2.6,2.6-2.6c1.4,0,2.6,1.2,2.6,2.6S1211.5,134.3,1210.1,134.3z
			 M1210.1,129.6c-1.2,0-2.1,0.9-2.1,2.1s0.9,2.1,2.1,2.1c1.2,0,2.1-0.9,2.1-2.1S1211.3,129.6,1210.1,129.6z"/>
	</g>
	<g>
		<path class="st10" d="M1397.3,100.3c-1.4,0-2.6-1.2-2.6-2.6c0-1.4,1.2-2.6,2.6-2.6c1.4,0,2.6,1.2,2.6,2.6
			C1399.9,99.1,1398.8,100.3,1397.3,100.3z M1397.3,95.6c-1.2,0-2.1,0.9-2.1,2.1c0,1.2,0.9,2.1,2.1,2.1c1.2,0,2.1-0.9,2.1-2.1
			C1399.5,96.5,1398.5,95.6,1397.3,95.6z"/>
	</g>
	<g>
		<polygon class="st10" points="1297.5,135.9 1318,135.9 1318,97.9 1395.1,97.9 1395.1,97.4 1317.6,97.4 1317.6,135.4 1297,135.4 
			1297,150 1297.5,150 		"/>
	</g>
	<g>
		<path class="st5" d="M1349.8,112.4h-13.7v18.9c0,4,4.2,12.8,13.7,12.8c0,0,0,0,0.1,0L1349.8,112.4L1349.8,112.4z"/>
		<path class="st5" d="M1349.8,144.6c-10.1,0-14.2-9.4-14.2-13.3v-18.9c0-0.3,0.2-0.5,0.5-0.5h13.7c0.3,0,0.5,0.2,0.5,0.5v31.7
			C1350.4,144.3,1350.1,144.6,1349.8,144.6L1349.8,144.6z M1336.6,112.9v18.4c0,3.6,3.7,12,12.7,12.3v-30.7H1336.6z"/>
	</g>
	<g>
		<path class="st8" d="M1349.9,144.6c-0.1,0-0.3-0.1-0.3-0.1c-0.1-0.1-0.1-0.2-0.1-0.4v-31.7c0-0.3,0.2-0.5,0.5-0.5h13.6
			c0.3,0,0.5,0.2,0.5,0.5v18.9C1364,135.2,1359.9,144.5,1349.9,144.6L1349.9,144.6z M1350.4,112.9v30.7c9-0.3,12.6-8.7,12.6-12.3
			v-18.4H1350.4z"/>
	</g>
	<g>
		<path class="st8" d="M1358.4,141.3h-8.5c-0.3,0-0.5-0.2-0.5-0.5c0-0.3,0.2-0.5,0.5-0.5h8.5c0.3,0,0.5,0.2,0.5,0.5
			C1358.9,141,1358.6,141.3,1358.4,141.3z"/>
	</g>
	<g>
		<path class="st8" d="M1363.2,116.4h-13.3c-0.3,0-0.5-0.2-0.5-0.5s0.2-0.5,0.5-0.5h13.3c0.3,0,0.5,0.2,0.5,0.5
			S1363.5,116.4,1363.2,116.4z"/>
	</g>
	<g>
		<path class="st8" d="M1363.2,120h-13.3c-0.3,0-0.5-0.2-0.5-0.5s0.2-0.5,0.5-0.5h13.3c0.3,0,0.5,0.2,0.5,0.5S1363.5,120,1363.2,120
			z"/>
	</g>
	<g>
		<path class="st8" d="M1363.2,123.5h-13.3c-0.3,0-0.5-0.2-0.5-0.5s0.2-0.5,0.5-0.5h13.3c0.3,0,0.5,0.2,0.5,0.5
			S1363.5,123.5,1363.2,123.5z"/>
	</g>
	<g>
		<path class="st8" d="M1363.2,127.1h-13.3c-0.3,0-0.5-0.2-0.5-0.5c0-0.3,0.2-0.5,0.5-0.5h13.3c0.3,0,0.5,0.2,0.5,0.5
			C1363.7,126.8,1363.5,127.1,1363.2,127.1z"/>
	</g>
	<g>
		<path class="st8" d="M1363.2,130.6h-13.3c-0.3,0-0.5-0.2-0.5-0.5s0.2-0.5,0.5-0.5h13.3c0.3,0,0.5,0.2,0.5,0.5
			S1363.5,130.6,1363.2,130.6z"/>
	</g>
	<g>
		<path class="st8" d="M1362.2,134.2h-12.3c-0.3,0-0.5-0.2-0.5-0.5s0.2-0.5,0.5-0.5h12.3c0.3,0,0.5,0.2,0.5,0.5
			S1362.5,134.2,1362.2,134.2z"/>
	</g>
	<g>
		<path class="st8" d="M1361,137.7h-11.1c-0.3,0-0.5-0.2-0.5-0.5s0.2-0.5,0.5-0.5h11.1c0.3,0,0.5,0.2,0.5,0.5
			S1361.3,137.7,1361,137.7z"/>
	</g>
	<g id="XMLID_1880_">
		<circle class="st19" cx="1254.3" cy="27.9" r="9.6"/>
		<path class="st8" d="M1254.3,38c-5.6,0-10.1-4.5-10.1-10.1s4.5-10.1,10.1-10.1s10.1,4.5,10.1,10.1S1259.9,38,1254.3,38z
			 M1254.3,18.8c-5,0-9.1,4.1-9.1,9.1s4.1,9.1,9.1,9.1s9.1-4.1,9.1-9.1S1259.3,18.8,1254.3,18.8z"/>
	</g>
	<g id="XMLID_1879_">
		<path class="st8" d="M1254.3,32.5c-0.3,0-0.5-0.2-0.5-0.5v-8.2c0-0.3,0.2-0.5,0.5-0.5s0.5,0.2,0.5,0.5V32
			C1254.8,32.3,1254.6,32.5,1254.3,32.5z"/>
	</g>
	<g id="XMLID_1878_">
		<path class="st8" d="M1258.4,28.4h-8.2c-0.3,0-0.5-0.2-0.5-0.5c0-0.3,0.2-0.5,0.5-0.5h8.2c0.3,0,0.5,0.2,0.5,0.5
			C1258.9,28.2,1258.7,28.4,1258.4,28.4z"/>
	</g>
	<g>
		<path class="st10" d="M1300.5,0v35.3c0,1,0.8,1.8,1.8,1.8h20.4c0,2.5-0.3,5.7-1.5,6.8c-0.1,0.1-0.2,0.4-0.1,0.5
			c0.1,0.2,0.3,0.3,0.5,0.3h9.4V0H1300.5z"/>
	</g>
	<g>
		<path class="st5" d="M1330.9,0v44.8h9.3c0.2,0,0.4-0.1,0.5-0.3c0.1-0.2,0-0.4-0.1-0.5c-1.2-1.1-1.4-4.3-1.5-6.8h20.4
			c1,0,1.8-0.8,1.8-1.8V0H1330.9z"/>
	</g>
	<g id="XMLID_1877_">
		<path class="st19" d="M1355.3,0.5h-48.8c-1.4,0-2.6,1.2-2.6,2.6v22.6c0,1.4,1.2,2.6,2.6,2.6h48.8c1.4,0,2.6-1.2,2.6-2.6V3.1
			C1357.9,1.7,1356.8,0.5,1355.3,0.5z"/>
		<path class="st8" d="M1357.6,0h-53.4c-0.6,0.3-1.1,1-1.1,1.8V27c0,1.1,0.9,2,2,2h51.5c1.1,0,2-0.9,2-2V1.8
			C1358.7,1,1358.2,0.3,1357.6,0z M1357.2,27c0,0.3-0.2,0.5-0.5,0.5h-51.5c-0.3,0-0.5-0.2-0.5-0.5V1.8c0-0.3,0.2-0.5,0.5-0.5h51.5
			c0.3,0,0.5,0.2,0.5,0.5V27z"/>
	</g>
	<g>
		<polygon class="st8" points="1330.9,43.7 1318.6,43.7 1318.6,45 1343.2,45 1343.2,43.7 		"/>
		<path class="st8" d="M1343.2,45.5h-24.5c-0.3,0-0.5-0.2-0.5-0.5v-1.2c0-0.3,0.2-0.5,0.5-0.5h24.5c0.3,0,0.5,0.2,0.5,0.5V45
			C1343.7,45.2,1343.5,45.5,1343.2,45.5z M1319.1,44.5h23.5v-0.2h-23.5V44.5z"/>
	</g>
	<g id="XMLID_1876_">
		<ellipse transform="matrix(0.5 -0.866 0.866 0.5 546.4867 1105.3657)" class="st8" cx="1230.5" cy="79.4" rx="0.8" ry="0.8"/>
	</g>
	<g id="XMLID_1875_">
		<ellipse transform="matrix(0.5 -0.866 0.866 0.5 558.243 1105.3557)" class="st8" cx="1236.4" cy="69.2" rx="0.8" ry="0.8"/>
	</g>
	<g id="XMLID_1874_">
		<ellipse transform="matrix(0.5 -0.866 0.866 0.5 552.3735 1098.5781)" class="st8" cx="1227.6" cy="70.9" rx="0.8" ry="0.8"/>
	</g>
	<g id="XMLID_1873_">
		<ellipse transform="matrix(0.866 -0.5 0.5 0.866 129.3339 627.9423)" class="st8" cx="1236.4" cy="72.6" rx="0.8" ry="0.8"/>
	</g>
	<g id="XMLID_1872_">
		<ellipse transform="matrix(0.866 -0.5 0.5 0.866 132.0687 617.7755)" class="st8" cx="1218.8" cy="62.5" rx="0.8" ry="0.8"/>
	</g>
	<g id="XMLID_1871_">
		<ellipse transform="matrix(0.5 -0.866 0.866 0.5 549.4385 1090.1061)" class="st8" cx="1218.8" cy="69.2" rx="0.8" ry="0.8"/>
	</g>
	<g id="XMLID_1403_">
		<path class="st8" d="M1439.7,39.6C1439.7,39.6,1439.7,39.6,1439.7,39.6c-2.8,0-5.5-0.7-8-2l1.2-2.1c0.2-0.4,0.1-0.8-0.3-1
			c-0.4-0.2-0.8-0.1-1,0.3l-3,5.2c-0.2,0.4-0.1,0.8,0.3,1c0.1,0.1,0.2,0.1,0.4,0.1c0.3,0,0.5-0.1,0.6-0.4l1-1.8
			c2.7,1.4,5.7,2.2,8.7,2.2c0,0,0,0,0,0c0.1,0,0.2,0,0.3,0v-1.5C1439.9,39.6,1439.8,39.6,1439.7,39.6z"/>
	</g>
	<g>
		<path class="st10" d="M1439.7,7c-8.5,0-15.3,6.9-15.3,15.3c0,5.7,3.1,10.6,7.7,13.3l7.9-13.7V7C1439.9,7,1439.8,7,1439.7,7z"/>
	</g>
	<g>
		<path class="st5" d="M1432.1,35.6c2.3,1.3,4.9,2.1,7.7,2.1c0.1,0,0.2,0,0.3,0V21.9L1432.1,35.6z"/>
	</g>
	<g id="XMLID_1400_">
		<path class="st8" d="M1439.2,21.8c-0.2,0.4-0.1,0.9,0.3,1.2c0.2,0.1,0.3,0.1,0.5,0.1v-1.7C1439.7,21.4,1439.3,21.5,1439.2,21.8z"
			/>
	</g>
	<g id="XMLID_1398_">
		<ellipse transform="matrix(0.866 -0.5 0.5 0.866 184.8477 717.4273)" class="st8" cx="1431.1" cy="13.8" rx="0.8" ry="0.8"/>
	</g>
	<g id="XMLID_1397_">
		<ellipse transform="matrix(0.5 -0.866 0.866 0.5 697.7465 1249.6655)" class="st8" cx="1431.1" cy="20.6" rx="0.8" ry="0.8"/>
	</g>
	<g>
		<path class="st8" d="M1379,70.3L1379,70.3l-8.9-5.2h-0.1l3,5.2H1379z"/>
	</g>
	<g>
		<path class="st8" d="M1372.8,64.4c-0.6,0-1.2,0.1-1.7,0.2l7.8,4.5C1378.2,66.5,1375.7,64.4,1372.8,64.4z"/>
	</g>
	<g>
		<path class="st8" d="M1379.7,70.3L1379.7,70.3l3.4-5.9l-3.4-5.8h-6.7l-3.3,5.8c0.9-0.5,2-0.8,3.1-0.8
			C1376.5,63.7,1379.6,66.6,1379.7,70.3z"/>
	</g>
	<g>
		<path class="st8" d="M1365.8,70.6c0-2.5,1.3-4.6,3.2-5.9h-6.7l-3.3,5.9l3.3,5.8h6.7C1367.1,75.3,1365.8,73.1,1365.8,70.6z"/>
	</g>
	<g>
		<path class="st8" d="M1368.5,75.2v-9.1c-1.2,1.1-2,2.7-2,4.5C1366.5,72.5,1367.3,74.1,1368.5,75.2z"/>
	</g>
	<g>
		<path class="st8" d="M1369.3,65.4C1369.3,65.4,1369.3,65.5,1369.3,65.4l-0.1,10.4c0.1,0,0,0.1,0.1,0.1l3-5.2L1369.3,65.4z"/>
	</g>
	<g>
		<path class="st8" d="M1370,76.3C1370,76.3,1370.1,76.3,1370,76.3l8.9-5.1c0-0.1,0-0.1,0-0.2h-6L1370,76.3z"/>
	</g>
	<g>
		<path class="st8" d="M1378.8,72.1l-7.8,4.5c0.5,0.2,1.1,0.2,1.7,0.2C1375.7,76.9,1378.1,74.8,1378.8,72.1z"/>
	</g>
	<g>
		<path class="st8" d="M1379.7,71c0,0.2,0,0.4-0.1,0.6l0,0l0,0c-0.5,3.4-3.4,6.1-6.9,6.1c-1.1,0-2.2-0.3-3.1-0.8l0,0l3.3,5.9h6.7
			l3.3-5.9L1379.7,71L1379.7,71z"/>
	</g>
	<g>
		<path class="st8" d="M1159.6,56.3c-0.4,0-0.8-0.3-0.8-0.8c-0.1-1.8-0.1-3.9,0.6-5l0.1-0.1c1.3-2.2,4.1-3,6.3-1.7
			c0.4,0.2,0.5,0.7,0.3,1.2c-0.2,0.4-0.7,0.5-1.2,0.3c-1.4-0.8-3.2-0.3-4,1.1l-0.1,0.1c-0.5,0.9-0.4,3.3-0.4,4.1
			C1160.5,55.9,1160.1,56.3,1159.6,56.3C1159.6,56.3,1159.6,56.3,1159.6,56.3z"/>
	</g>
	<g id="XMLID_1849_">
		<path class="st8" d="M1404.5,62.1h-6c-0.3,0-0.5-0.2-0.5-0.5c0-0.3,0.2-0.5,0.5-0.5h6c0.3,0,0.5,0.2,0.5,0.5
			C1405,61.9,1404.8,62.1,1404.5,62.1z"/>
	</g>
	<g id="XMLID_1848_">
		<path class="st8" d="M1404.5,51.3h-5.7c-0.3,0-0.5-0.2-0.5-0.5c0-0.3,0.2-0.5,0.5-0.5h5.7c0.3,0,0.5,0.2,0.5,0.5
			C1405,51.1,1404.8,51.3,1404.5,51.3z"/>
	</g>
	<g>
		<path class="st8" d="M1400.9,53.7c-0.1,0-0.3,0-0.4-0.1l-2.4-2.4c-0.1-0.1-0.1-0.2-0.1-0.4c0-0.1,0.1-0.3,0.1-0.4l2.4-2.4
			c0.2-0.2,0.5-0.2,0.7,0c0.2,0.2,0.2,0.5,0,0.7l-2.1,2.1l2.1,2.1c0.2,0.2,0.2,0.5,0,0.7C1401.2,53.7,1401.1,53.7,1400.9,53.7z"/>
	</g>
	<g>
		<path class="st5" d="M1411.4,66.4C1411.4,66.4,1411.4,66.4,1411.4,66.4c-0.7-0.2-2-3.8-2-10.2c0,0,0,0,0,0h-6.5c0,0,0,0,0,0
			c0,4.3,0.7,11.5,3.2,11.5h5.1h0c0.4,0,0.7-0.3,0.7-0.7C1412,66.7,1411.7,66.4,1411.4,66.4z"/>
	</g>
	<g>
		<path class="st10" d="M1411.3,46.1c0.4,0,0.7-0.3,0.7-0.7s-0.3-0.7-0.7-0.7h-5.1c-2.5,0-3.2,7.2-3.2,11.5h6.5
			C1409.5,49.9,1410.7,46.2,1411.3,46.1z"/>
	</g>
	<g id="XMLID_1847_">
		<path class="st8" d="M1419.9,62.1h-10.2c-0.3,0-0.5-0.2-0.5-0.5c0-0.3,0.2-0.5,0.5-0.5h10.2c0.3,0,0.5,0.2,0.5,0.5
			C1420.3,61.9,1420.1,62.1,1419.9,62.1z"/>
	</g>
	<g id="XMLID_1846_">
		<path class="st8" d="M1420.1,51.3h-10.5c-0.3,0-0.5-0.2-0.5-0.5s0.2-0.5,0.5-0.5h10.5c0.3,0,0.5,0.2,0.5,0.5
			S1420.4,51.3,1420.1,51.3z"/>
	</g>
	<g>
		<path class="st8" d="M1417.7,64.5c-0.1,0-0.3,0-0.4-0.1c-0.2-0.2-0.2-0.5,0-0.7l2.1-2.1l-2.1-2.1c-0.2-0.2-0.2-0.5,0-0.7
			s0.5-0.2,0.7,0l2.4,2.4c0.1,0.1,0.1,0.2,0.1,0.4c0,0.1-0.1,0.3-0.1,0.4l-2.4,2.4C1418,64.5,1417.8,64.5,1417.7,64.5z"/>
	</g>
	<g id="XMLID_1845_">
		<path class="st8" d="M1411.9,67.5c-2.1,0-3.1-5.9-3.1-11.3c0-5.4,1-11.3,3.1-11.3c2.1,0,3.1,5.9,3.1,11.3
			C1414.9,61.6,1414,67.5,1411.9,67.5z M1411.9,45.9c-0.7,0-2.1,3.6-2.1,10.3s1.4,10.3,2.1,10.3c0.7,0,2.1-3.6,2.1-10.3
			S1412.6,45.9,1411.9,45.9z"/>
	</g>
	<g>
		<path class="st5" d="M1405.5,6.4c1.4-2,2.5-4.1,3.2-6.4h-9.9l-6.8,12.2c0,0,0.1,0,0.1,0c5.2,3.2,5.4,9.4,5.4,9.5
			c0,0.3,0.2,0.6,0.4,0.7c0.1,0.1,0.3,0.1,0.4,0.1c0.1,0,0.3,0,0.4-0.1l5.3-3.1c0.2-0.1,0.3-0.3,0.4-0.5c0.1-0.2,0-0.4-0.1-0.6
			l-3-5.2c-0.2-0.3-0.1-0.6,0-0.9L1405.5,6.4z"/>
	</g>
	<g>
		<path class="st10" d="M1388,0l-1.6,3.5c-0.1,0.3-0.4,0.5-0.8,0.5h-6c-0.2,0-0.4,0.1-0.6,0.2c-0.2,0.2-0.2,0.4-0.2,0.6l0,6.2
			c0,0.3,0.1,0.5,0.4,0.7c0.2,0.2,0.5,0.2,0.8,0.1c0.1,0,6.7-2.7,11.9,0.4l6.8-12.2H1388z"/>
	</g>
	<g>
		<path class="st19" d="M1398.1,0c0.1,0.1,0.3,0.2,0.5,0.3c1.4,0.8,3.1,0.6,4.2-0.3H1398.1z"/>
	</g>
	<g>
		<path class="st8" d="M1396.9,0c0.3,0.4,0.8,0.8,1.2,1.1c0.7,0.4,1.5,0.6,2.3,0.6c0.4,0,0.8-0.1,1.2-0.2c0.9-0.3,1.7-0.8,2.3-1.5
			H1396.9z"/>
	</g>
	<g>
		<path class="st8" d="M1388.5,22.4c-0.3,0-0.6-0.2-0.8-0.5c-0.2-0.4,0-0.9,0.4-1.1c0.8-0.4,2.9-1.4,3.4-2.4l0.1-0.1
			c0.4-0.7,0.5-1.5,0.3-2.2c-0.2-0.8-0.7-1.4-1.4-1.8c-0.4-0.2-0.5-0.7-0.3-1.2c0.2-0.4,0.7-0.5,1.2-0.3c2.2,1.3,3,4.1,1.7,6.3
			l-0.1,0.1c-0.7,1.2-2.4,2.2-4.1,3C1388.8,22.3,1388.6,22.4,1388.5,22.4z"/>
	</g>
	<g>
		<polygon class="st10" points="1427.3,84.2 1427.3,97.1 1427.8,97.1 1427.8,84.7 1440,84.7 1440,84.2 		"/>
	</g>
	<g>
		<path class="st10" d="M1427.6,101.9c-1.4,0-2.6-1.2-2.6-2.6c0-1.4,1.2-2.6,2.6-2.6c1.4,0,2.6,1.2,2.6,2.6
			C1430.2,100.7,1429,101.9,1427.6,101.9z M1427.6,97.2c-1.2,0-2.1,0.9-2.1,2.1c0,1.2,0.9,2.1,2.1,2.1c1.2,0,2.1-0.9,2.1-2.1
			C1429.7,98.1,1428.7,97.2,1427.6,97.2z"/>
	</g>
	<g>
		<path class="st8" d="M1385.6,20.7c-0.4,0-0.8-0.3-0.8-0.8c-0.1-1.8-0.1-3.9,0.6-5l0.1-0.1c1.3-2.2,4.1-3,6.3-1.7
			c0.4,0.2,0.5,0.7,0.3,1.2c-0.2,0.4-0.7,0.5-1.2,0.3c-1.4-0.8-3.2-0.3-4,1.1l-0.1,0.1c-0.5,0.9-0.4,3.3-0.4,4.1
			C1386.5,20.3,1386.1,20.7,1385.6,20.7C1385.7,20.7,1385.6,20.7,1385.6,20.7z"/>
	</g>
	<g id="XMLID_1720_">
		<path class="st8" d="M1434.4,124.8c-0.3,0-0.5,0.2-0.5,0.5s0.2,0.5,0.5,0.5h5.6v-1H1434.4z"/>
		<path class="st8" d="M1440,149.4h-5.6c-0.3,0-0.5,0.2-0.5,0.5c0,0,0,0.1,0,0.1h6.1V149.4z"/>
	</g>
	<g id="XMLID_1719_">
		<path class="st8" d="M1438.6,136.2h-4.2c-0.3,0-0.5,0.2-0.5,0.5s0.2,0.5,0.5,0.5h4.2c0.3,0,0.5-0.2,0.5-0.5
			S1438.8,136.2,1438.6,136.2z"/>
	</g>
	<g id="XMLID_1718_">
		<path class="st8" d="M1438.6,132.4h-4.2c-0.3,0-0.5,0.2-0.5,0.5s0.2,0.5,0.5,0.5h4.2c0.3,0,0.5-0.2,0.5-0.5
			S1438.8,132.4,1438.6,132.4z"/>
	</g>
	<g id="XMLID_1717_">
		<path class="st8" d="M1438.6,128.6h-4.2c-0.3,0-0.5,0.2-0.5,0.5s0.2,0.5,0.5,0.5h4.2c0.3,0,0.5-0.2,0.5-0.5
			S1438.8,128.6,1438.6,128.6z"/>
	</g>
	<g id="XMLID_1716_">
		<path class="st8" d="M1418.8,149.9c0-0.3-0.2-0.5-0.5-0.5h-7.5v-23.6h7.5c0.3,0,0.5-0.2,0.5-0.5s-0.2-0.5-0.5-0.5h-8
			c-0.3,0-0.5,0.2-0.5,0.5v24.6c0,0,0,0.1,0,0.1h9C1418.8,149.9,1418.8,149.9,1418.8,149.9z"/>
	</g>
	<g id="XMLID_1715_">
		<path class="st8" d="M1418.3,137.2h-4.2c-0.3,0-0.5-0.2-0.5-0.5s0.2-0.5,0.5-0.5h4.2c0.3,0,0.5,0.2,0.5,0.5
			S1418.5,137.2,1418.3,137.2z"/>
	</g>
	<g id="XMLID_1714_">
		<path class="st8" d="M1418.3,133.4h-4.2c-0.3,0-0.5-0.2-0.5-0.5s0.2-0.5,0.5-0.5h4.2c0.3,0,0.5,0.2,0.5,0.5
			S1418.5,133.4,1418.3,133.4z"/>
	</g>
	<g id="XMLID_1713_">
		<path class="st8" d="M1418.3,129.6h-4.2c-0.3,0-0.5-0.2-0.5-0.5s0.2-0.5,0.5-0.5h4.2c0.3,0,0.5,0.2,0.5,0.5
			S1418.5,129.6,1418.3,129.6z"/>
	</g>
	<g>
		<path class="st10" d="M1426.2,120.8h-7.9c-0.4,0-0.7,0.3-0.7,0.7V150h8.6V120.8z"/>
	</g>
	<g>
		<path class="st5" d="M1435,121.5c0-0.4-0.3-0.7-0.7-0.7h-8.1V150h8.8V121.5z"/>
	</g>
	<g id="XMLID_1712_">
		<path class="st19" d="M1430.5,133.4h-8.4c-0.3,0-0.5-0.2-0.5-0.5s0.2-0.5,0.5-0.5h8.4c0.3,0,0.5,0.2,0.5,0.5
			S1430.8,133.4,1430.5,133.4z"/>
	</g>
	<g id="XMLID_1711_">
		<path class="st19" d="M1430.5,129.6h-8.4c-0.3,0-0.5-0.2-0.5-0.5s0.2-0.5,0.5-0.5h8.4c0.3,0,0.5,0.2,0.5,0.5
			S1430.8,129.6,1430.5,129.6z"/>
	</g>
	<g id="XMLID_1396_">
		<path class="st19" d="M1430.5,125.8h-8.4c-0.3,0-0.5-0.2-0.5-0.5s0.2-0.5,0.5-0.5h8.4c0.3,0,0.5,0.2,0.5,0.5
			S1430.8,125.8,1430.5,125.8z"/>
	</g>
	<g>
		<g>
			<rect x="797.1" y="127.2" class="st10" width="0.5" height="22.7"/>
		</g>
		<g>
			<rect x="800" y="137.1" class="st10" width="0.5" height="12.9"/>
		</g>
		<g>
			<path class="st10" d="M797.2,127.6c-1.4,0-2.6-1.2-2.6-2.6c0-1.4,1.2-2.6,2.6-2.6c1.4,0,2.6,1.2,2.6,2.6
				C799.8,126.5,798.6,127.6,797.2,127.6z M797.2,122.9c-1.2,0-2.1,0.9-2.1,2.1c0,1.2,0.9,2.1,2.1,2.1c1.2,0,2.1-0.9,2.1-2.1
				C799.3,123.9,798.3,122.9,797.2,122.9z"/>
		</g>
	</g>
</g>
<g id="Layer_4">
</g>
<g id="Layer_5">
</g>
</svg>
